<?xml version="1.0" encoding="UTF-8"?>
<!DOCTYPE svg PUBLIC "-//W3C//DTD SVG 1.1//EN" "http://www.w3.org/Graphics/SVG/1.1/DTD/svg11.dtd">
<svg xmlns="http://www.w3.org/2000/svg" version="1.1" width="512px" height="512px" style="shape-rendering:geometricPrecision; text-rendering:geometricPrecision; image-rendering:optimizeQuality; fill-rule:evenodd; clip-rule:evenodd" xmlns:xlink="http://www.w3.org/1999/xlink">
<g><path style="opacity:1" fill="#2e6790" d="M 318.5,97.5 C 318.5,98.8333 318.5,100.167 318.5,101.5C 320.124,101.36 321.29,102.027 322,103.5C 322.832,113.517 322.666,123.517 321.5,133.5C 320.808,134.025 320.308,134.692 320,135.5C 316.877,134.94 313.877,133.94 311,132.5C 310.235,132.57 309.735,132.903 309.5,133.5C 305.584,131.934 301.584,130.6 297.5,129.5C 297.5,128.5 297.5,127.5 297.5,126.5C 298.708,125.766 300.041,125.433 301.5,125.5C 302.221,118.533 302.721,111.533 303,104.5C 304.356,103.62 305.856,103.286 307.5,103.5C 307.5,102.5 307.5,101.5 307.5,100.5C 298.815,99.3229 290.148,98.3229 281.5,97.5C 285.783,96.1734 290.449,95.5067 295.5,95.5C 303.206,95.9311 310.873,96.5977 318.5,97.5 Z"/></g>
<g><path style="opacity:1" fill="#27547d" d="M 281.5,97.5 C 290.148,98.3229 298.815,99.3229 307.5,100.5C 307.5,101.5 307.5,102.5 307.5,103.5C 305.856,103.286 304.356,103.62 303,104.5C 302.721,111.533 302.221,118.533 301.5,125.5C 300.041,125.433 298.708,125.766 297.5,126.5C 292.889,125.515 288.222,124.848 283.5,124.5C 282.411,122.883 280.744,122.05 278.5,122C 271.174,121.5 263.841,121.334 256.5,121.5C 263.319,122.178 266.319,119.011 265.5,112C 266.24,108.122 264.907,105.288 261.5,103.5C 260.5,104.167 259.5,104.833 258.5,105.5C 257.833,109.167 257.167,112.833 256.5,116.5C 255.516,113.572 255.183,110.572 255.5,107.5C 252.15,107.665 248.817,107.498 245.5,107C 244.944,106.617 244.611,106.117 244.5,105.5C 248.677,102.772 253.343,100.939 258.5,100C 266.066,98.2245 273.733,97.3912 281.5,97.5 Z"/></g>
<g><path style="opacity:1" fill="#233d64" d="M 256.5,121.5 C 254.368,121.554 253.035,122.554 252.5,124.5C 246.103,124.979 239.77,125.979 233.5,127.5C 233.291,128.086 232.957,128.586 232.5,129C 226.055,130.958 219.722,133.125 213.5,135.5C 213.5,134.167 213.5,132.833 213.5,131.5C 218.552,129.958 223.552,128.291 228.5,126.5C 226.022,124.564 226.022,122.564 228.5,120.5C 228.167,119.167 227.833,117.833 227.5,116.5C 223.016,117.812 218.849,119.812 215,122.5C 213.97,122.164 213.47,121.497 213.5,120.5C 216.672,117.668 220.339,115.335 224.5,113.5C 229.342,111.227 234.342,109.561 239.5,108.5C 239.5,107.5 239.5,106.5 239.5,105.5C 241.167,105.5 242.833,105.5 244.5,105.5C 244.611,106.117 244.944,106.617 245.5,107C 248.817,107.498 252.15,107.665 255.5,107.5C 255.183,110.572 255.516,113.572 256.5,116.5C 257.167,112.833 257.833,109.167 258.5,105.5C 259.5,104.833 260.5,104.167 261.5,103.5C 264.907,105.288 266.24,108.122 265.5,112C 266.319,119.011 263.319,122.178 256.5,121.5 Z"/></g>
<g><path style="opacity:1" fill="#26739f" d="M 318.5,97.5 C 324.758,98.8107 330.758,100.811 336.5,103.5C 337.13,106.582 338.13,109.582 339.5,112.5C 340.167,112.167 340.833,111.833 341.5,111.5C 342.15,114.655 343.817,117.155 346.5,119C 346,119.5 345.5,120 345,120.5C 344.833,126.833 344.667,133.167 344.5,139.5C 344.522,146.24 345.188,152.74 346.5,159C 345.338,161.816 344.171,164.65 343,167.5C 338.466,163.195 336.966,158.028 338.5,152C 337.004,151.493 335.837,151.993 335,153.5C 333.727,151.428 331.893,150.095 329.5,149.5C 328.672,145.668 326.339,143.668 322.5,143.5C 318.278,139.904 313.945,136.571 309.5,133.5C 309.735,132.903 310.235,132.57 311,132.5C 313.877,133.94 316.877,134.94 320,135.5C 320.308,134.692 320.808,134.025 321.5,133.5C 322.666,123.517 322.832,113.517 322,103.5C 321.29,102.027 320.124,101.36 318.5,101.5C 318.5,100.167 318.5,98.8333 318.5,97.5 Z"/></g>
<g><path style="opacity:1" fill="#3282af" d="M 336.5,103.5 C 338.5,104.167 340.5,104.833 342.5,105.5C 342.5,106.5 342.5,107.5 342.5,108.5C 349.522,110.959 355.522,114.959 360.5,120.5C 360.343,121.873 360.51,123.207 361,124.5C 364.604,128.111 367.437,132.277 369.5,137C 368.451,137.492 367.451,137.326 366.5,136.5C 366.167,137.167 365.833,137.833 365.5,138.5C 366.103,140.872 367.103,143.039 368.5,145C 367.526,158.797 367.193,172.63 367.5,186.5C 365.167,186.5 362.833,186.5 360.5,186.5C 360.5,187.833 360.5,189.167 360.5,190.5C 355.167,190.5 349.833,190.5 344.5,190.5C 343.926,185.435 342.926,180.435 341.5,175.5C 339.022,171.471 337.355,167.138 336.5,162.5C 331.411,156.42 326.744,150.087 322.5,143.5C 326.339,143.668 328.672,145.668 329.5,149.5C 331.893,150.095 333.727,151.428 335,153.5C 335.837,151.993 337.004,151.493 338.5,152C 336.966,158.028 338.466,163.195 343,167.5C 344.171,164.65 345.338,161.816 346.5,159C 345.188,152.74 344.522,146.24 344.5,139.5C 344.667,133.167 344.833,126.833 345,120.5C 345.5,120 346,119.5 346.5,119C 343.817,117.155 342.15,114.655 341.5,111.5C 340.833,111.833 340.167,112.167 339.5,112.5C 338.13,109.582 337.13,106.582 336.5,103.5 Z"/></g>
<g><path style="opacity:1" fill="#232f57" d="M 213.5,135.5 C 205.489,138.844 197.489,142.177 189.5,145.5C 189.5,146.5 189.5,147.5 189.5,148.5C 188.5,148.5 187.5,148.5 186.5,148.5C 185.09,147.172 183.924,147.505 183,149.5C 182.586,149.043 182.086,148.709 181.5,148.5C 179.809,150.256 177.809,150.756 175.5,150C 177.838,148.838 179.172,147.004 179.5,144.5C 184.986,143.776 188.319,140.776 189.5,135.5C 193.235,132.945 196.902,130.111 200.5,127C 204.587,124.211 208.921,122.044 213.5,120.5C 213.47,121.497 213.97,122.164 215,122.5C 218.849,119.812 223.016,117.812 227.5,116.5C 227.833,117.833 228.167,119.167 228.5,120.5C 226.022,122.564 226.022,124.564 228.5,126.5C 223.552,128.291 218.552,129.958 213.5,131.5C 213.5,132.833 213.5,134.167 213.5,135.5 Z"/></g>
<g><path style="opacity:0.59" fill="#93a3b8" d="M 256.5,121.5 C 263.841,121.334 271.174,121.5 278.5,122C 280.744,122.05 282.411,122.883 283.5,124.5C 273.167,124.5 262.833,124.5 252.5,124.5C 253.035,122.554 254.368,121.554 256.5,121.5 Z"/></g>
<g><path style="opacity:1" fill="#3b4164" d="M 189.5,135.5 C 188.319,140.776 184.986,143.776 179.5,144.5C 179.172,147.004 177.838,148.838 175.5,150C 177.809,150.756 179.809,150.256 181.5,148.5C 182.086,148.709 182.586,149.043 183,149.5C 183.924,147.505 185.09,147.172 186.5,148.5C 181.26,152.546 175.594,156.213 169.5,159.5C 166.897,161.621 164.564,163.954 162.5,166.5C 160.62,166.771 159.287,166.104 158.5,164.5C 158.539,163.417 158.873,162.417 159.5,161.5C 164.057,158.023 168.057,154.023 171.5,149.5C 172.325,148.614 173.325,148.281 174.5,148.5C 174.48,146.857 175.147,145.524 176.5,144.5C 180.593,140.996 184.926,137.996 189.5,135.5 Z"/></g>
<g><path style="opacity:1" fill="#3694c3" d="M 360.5,120.5 C 362.078,121.066 363.412,122.066 364.5,123.5C 380.632,142.791 389.966,165.125 392.5,190.5C 381.833,190.5 371.167,190.5 360.5,190.5C 360.5,189.167 360.5,187.833 360.5,186.5C 362.833,186.5 365.167,186.5 367.5,186.5C 367.193,172.63 367.526,158.797 368.5,145C 367.103,143.039 366.103,140.872 365.5,138.5C 365.833,137.833 366.167,137.167 366.5,136.5C 367.451,137.326 368.451,137.492 369.5,137C 367.437,132.277 364.604,128.111 361,124.5C 360.51,123.207 360.343,121.873 360.5,120.5 Z"/></g>
<g><path style="opacity:0.998" fill="#242e56" d="M 158.5,164.5 C 159.287,166.104 160.62,166.771 162.5,166.5C 160.244,167.465 158.577,169.132 157.5,171.5C 156.509,175.445 156.176,179.445 156.5,183.5C 155.473,185.184 154.473,186.851 153.5,188.5C 152.167,187.5 150.833,186.5 149.5,185.5C 149.586,184.504 149.252,183.671 148.5,183C 145.854,182.503 143.187,182.336 140.5,182.5C 140.737,181.209 140.404,180.209 139.5,179.5C 140.336,176.408 141.003,173.241 141.5,170C 141.003,166.759 140.336,163.592 139.5,160.5C 141.958,160.227 143.625,161.227 144.5,163.5C 149.12,164.493 153.786,164.827 158.5,164.5 Z"/></g>
<g><path style="opacity:1" fill="#23355c" d="M 105.5,173.5 C 106.958,176.312 107.958,179.312 108.5,182.5C 108.163,185.176 107.83,187.843 107.5,190.5C 105.167,190.5 102.833,190.5 100.5,190.5C 101.931,184.61 103.598,178.944 105.5,173.5 Z"/></g>
<g><path style="opacity:0.463" fill="#5d647d" d="M 139.5,179.5 C 140.404,180.209 140.737,181.209 140.5,182.5C 143.187,182.336 145.854,182.503 148.5,183C 149.252,183.671 149.586,184.504 149.5,185.5C 145.167,185.5 140.833,185.5 136.5,185.5C 136.455,182.923 137.455,180.923 139.5,179.5 Z"/></g>
<g><path style="opacity:0.938" fill="#5e6378" d="M 156.5,183.5 C 158.344,185.279 159.01,187.612 158.5,190.5C 156.219,190.923 154.552,190.256 153.5,188.5C 154.473,186.851 155.473,185.184 156.5,183.5 Z"/></g>
<g><path style="opacity:0.62" fill="#36658a" d="M 105.5,173.5 C 108.986,174.953 112.653,175.619 116.5,175.5C 115.708,181.13 115.375,186.797 115.5,192.5C 112.467,192.868 109.8,192.202 107.5,190.5C 107.83,187.843 108.163,185.176 108.5,182.5C 107.958,179.312 106.958,176.312 105.5,173.5 Z"/></g>
<g><path style="opacity:0.974" fill="#2976a1" d="M 71.5,198.5 C 75.1667,198.5 78.8333,198.5 82.5,198.5C 81.1762,207.958 81.1762,217.458 82.5,227C 81.8333,233 81.1667,239 80.5,245C 80.7432,245.902 81.0766,246.735 81.5,247.5C 81.4971,251.524 81.1638,255.524 80.5,259.5C 77.1521,276.914 73.1521,293.914 68.5,310.5C 67.7008,305.968 67.3675,301.468 67.5,297C 70.0273,294.426 71.194,291.26 71,287.5C 71.5,257.835 71.6666,228.169 71.5,198.5 Z"/></g>
<g><path style="opacity:0.999" fill="#1e2a54" d="M 146.5,198.5 C 146.33,199.822 146.663,200.989 147.5,202C 154.876,202.837 160.209,206.67 163.5,213.5C 163.675,215.844 164.842,217.511 167,218.5C 167.89,221.706 167.557,224.706 166,227.5C 165.333,253.833 165.333,280.167 166,306.5C 167.057,308.219 167.89,310.053 168.5,312C 165.195,312.187 162.862,310.687 161.5,307.5C 160.817,307.863 160.15,308.196 159.5,308.5C 152.704,301.359 147.038,293.359 142.5,284.5C 137.812,279.313 133.312,273.98 129,268.5C 124.266,289.054 119.766,309.721 115.5,330.5C 104.854,331.499 94.1874,331.832 83.5,331.5C 86.0478,316.343 88.7144,301.176 91.5,286C 97.0508,263.296 102.051,240.462 106.5,217.5C 109.774,213.261 112.774,208.928 115.5,204.5C 119.834,202.967 124.167,201.301 128.5,199.5C 134.463,198.504 140.463,198.171 146.5,198.5 Z"/></g>
<g><path style="opacity:0.998" fill="#24517c" d="M 54.5,198.5 C 58.5,198.5 62.5,198.5 66.5,198.5C 65.8333,230.47 65.1667,262.47 64.5,294.5C 65.0766,296.106 65.4099,297.772 65.5,299.5C 65.0893,308.28 63.756,316.78 61.5,325C 62.7932,325.49 64.1266,325.657 65.5,325.5C 65.5,327.5 65.5,329.5 65.5,331.5C 60.8333,331.5 56.1667,331.5 51.5,331.5C 51.5271,329.801 52.1938,328.467 53.5,327.5C 53.261,325.715 53.9277,323.882 55.5,322C 54.5084,280.864 54.1751,239.697 54.5,198.5 Z"/></g>
<g><path style="opacity:0.997" fill="#25628d" d="M 66.5,198.5 C 68.1667,198.5 69.8333,198.5 71.5,198.5C 71.6666,228.169 71.5,257.835 71,287.5C 71.194,291.26 70.0273,294.426 67.5,297C 67.3675,301.468 67.7008,305.968 68.5,310.5C 68.261,315.768 67.261,320.768 65.5,325.5C 64.1266,325.657 62.7932,325.49 61.5,325C 63.756,316.78 65.0893,308.28 65.5,299.5C 65.4099,297.772 65.0766,296.106 64.5,294.5C 65.1667,262.47 65.8333,230.47 66.5,198.5 Z"/></g>
<g><path style="opacity:0.988" fill="#398eba" d="M 82.5,198.5 C 85.5,198.5 88.5,198.5 91.5,198.5C 91.5343,202.859 91.201,207.192 90.5,211.5C 87.9376,223.879 84.9376,235.879 81.5,247.5C 81.0766,246.735 80.7432,245.902 80.5,245C 81.1667,239 81.8333,233 82.5,227C 81.1762,217.458 81.1762,207.958 82.5,198.5 Z"/></g>
<g><path style="opacity:0.996" fill="#348fbf" d="M 322.5,198.5 C 332.167,198.5 341.833,198.5 351.5,198.5C 348.961,212.455 346.628,226.455 344.5,240.5C 343.167,240.5 342.5,241.167 342.5,242.5C 341.662,242.842 341.328,243.508 341.5,244.5C 339.744,245.552 339.077,247.219 339.5,249.5C 337.824,250.183 337.157,251.517 337.5,253.5C 336.566,254.568 336.232,255.901 336.5,257.5C 335.057,258.335 334.057,259.668 333.5,261.5C 332.667,273.486 332.167,285.486 332,297.5C 331.95,301.157 331.117,304.49 329.5,307.5C 328.504,307.414 327.671,307.748 327,308.5C 324.821,311.349 322.821,314.349 321,317.5C 320.704,314.567 321.204,311.734 322.5,309C 321.201,291.743 320.534,274.41 320.5,257C 320.667,240.5 320.833,224 321,207.5C 322.289,204.649 322.789,201.649 322.5,198.5 Z"/></g>
<g><path style="opacity:0.586" fill="#555c79" d="M 146.5,198.5 C 151.561,198.201 155.895,199.868 159.5,203.5C 162.779,207.753 165.779,212.087 168.5,216.5C 166.336,216.279 164.67,215.279 163.5,213.5C 160.209,206.67 154.876,202.837 147.5,202C 146.663,200.989 146.33,199.822 146.5,198.5 Z"/></g>
<g><path style="opacity:1" fill="#2b638c" d="M 450.5,200.5 C 450.567,201.959 450.234,203.292 449.5,204.5C 449.062,206.126 448.728,207.793 448.5,209.5C 451.482,216.025 451.149,222.359 447.5,228.5C 448.752,231.762 449.752,235.095 450.5,238.5C 450.192,239.308 449.692,239.975 449,240.5C 448.5,262.497 448.333,284.497 448.5,306.5C 447.5,306.5 446.5,306.5 445.5,306.5C 445.119,308.942 445.786,309.609 447.5,308.5C 448.487,311.768 448.82,315.102 448.5,318.5C 445.23,320.739 441.563,322.073 437.5,322.5C 437.5,323.5 437.5,324.5 437.5,325.5C 434.167,326.167 430.833,326.833 427.5,327.5C 427.077,326.735 426.743,325.902 426.5,325C 428.962,323.395 430.795,321.229 432,318.5C 432.293,313.722 432.46,309.055 432.5,304.5C 432.062,303.494 431.396,303.494 430.5,304.5C 429.614,305.325 429.281,306.325 429.5,307.5C 428.5,307.5 427.5,307.5 426.5,307.5C 426.473,305.801 425.806,304.467 424.5,303.5C 426.167,303.5 427.833,303.5 429.5,303.5C 429.614,300.15 429.947,296.817 430.5,293.5C 435.523,275.253 440.19,256.92 444.5,238.5C 444.167,237.167 443.833,235.833 443.5,234.5C 440.714,232.023 437.714,230.023 434.5,228.5C 434.719,227.325 434.386,226.325 433.5,225.5C 430.515,222.959 427.682,220.293 425,217.5C 423.569,220.391 422.069,223.057 420.5,225.5C 420.32,221.785 420.654,218.118 421.5,214.5C 419.999,210.997 419.166,207.331 419,203.5C 412.407,203.339 405.907,203.005 399.5,202.5C 402.403,200.896 405.737,199.896 409.5,199.5C 423.25,198.024 436.917,198.358 450.5,200.5 Z"/></g>
<g><path style="opacity:1" fill="#26537b" d="M 252.5,198.5 C 252.543,201.867 252.21,205.201 251.5,208.5C 251.477,210.067 251.977,211.4 253,212.5C 253.333,234.5 253.667,256.5 254,278.5C 256.081,280.415 255.915,282.081 253.5,283.5C 252.5,282.167 251.5,280.833 250.5,279.5C 248.262,282.433 247.262,282.099 247.5,278.5C 246.167,278.5 244.833,278.5 243.5,278.5C 240.134,275.507 236.968,272.174 234,268.5C 231.668,275.499 229.835,282.499 228.5,289.5C 227.12,289.038 226.453,288.038 226.5,286.5C 226.94,284.235 227.606,282.068 228.5,280C 227.5,279.667 226.5,279.333 225.5,279C 226.167,255.667 226.833,232.333 227.5,209C 225.833,208.333 224.167,208.333 222.5,209C 220.167,212 217.833,215 215.5,218C 214.552,218.483 213.552,218.649 212.5,218.5C 212.5,220.833 212.5,223.167 212.5,225.5C 211.5,225.5 210.5,225.5 209.5,225.5C 209.187,222.753 209.52,220.086 210.5,217.5C 212.932,214.312 215.599,211.312 218.5,208.5C 219.246,207.264 219.579,205.93 219.5,204.5C 224.252,203.201 228.919,201.534 233.5,199.5C 239.798,198.504 246.132,198.17 252.5,198.5 Z"/></g>
<g><path style="opacity:1" fill="#243e66" d="M 399.5,202.5 C 405.907,203.005 412.407,203.339 419,203.5C 419.166,207.331 419.999,210.997 421.5,214.5C 420.654,218.118 420.32,221.785 420.5,225.5C 420.5,226.5 420.5,227.5 420.5,228.5C 419.069,228.881 418.236,229.881 418,231.5C 418.295,227.639 416.795,226.306 413.5,227.5C 408.961,231.305 404.295,234.972 399.5,238.5C 398.523,240.411 397.857,242.411 397.5,244.5C 397.817,247.572 397.484,250.572 396.5,253.5C 395.469,258.158 394.135,262.492 392.5,266.5C 391.989,248.783 391.322,230.949 390.5,213C 391.261,210.575 392.928,209.242 395.5,209C 394.614,207.385 393.614,205.885 392.5,204.5C 394.279,202.656 396.612,201.99 399.5,202.5 Z"/></g>
<g><path style="opacity:1" fill="#23719d" d="M 449.5,204.5 C 451.199,204.34 452.866,204.506 454.5,205C 456.362,206.756 458.362,208.256 460.5,209.5C 460.623,238.087 460.456,266.754 460,295.5C 459.803,300.086 459.303,304.586 458.5,309C 459.416,309.278 460.082,309.778 460.5,310.5C 457.176,314.049 453.176,316.716 448.5,318.5C 448.82,315.102 448.487,311.768 447.5,308.5C 445.786,309.609 445.119,308.942 445.5,306.5C 446.5,306.5 447.5,306.5 448.5,306.5C 448.333,284.497 448.5,262.497 449,240.5C 449.692,239.975 450.192,239.308 450.5,238.5C 449.752,235.095 448.752,231.762 447.5,228.5C 451.149,222.359 451.482,216.025 448.5,209.5C 448.728,207.793 449.062,206.126 449.5,204.5 Z"/></g>
<g><path style="opacity:1" fill="#1e2c56" d="M 392.5,204.5 C 393.614,205.885 394.614,207.385 395.5,209C 392.928,209.242 391.261,210.575 390.5,213C 391.322,230.949 391.989,248.783 392.5,266.5C 389.66,278.778 386.993,291.111 384.5,303.5C 388.833,303.5 393.167,303.5 397.5,303.5C 398.778,303.782 399.778,304.449 400.5,305.5C 400.785,312.092 400.285,318.759 399,325.5C 399.374,326.416 399.874,327.25 400.5,328C 403.146,328.497 405.813,328.664 408.5,328.5C 408.5,329.5 408.5,330.5 408.5,331.5C 401.833,331.5 395.167,331.5 388.5,331.5C 388.5,330.5 388.5,329.5 388.5,328.5C 386.265,328.205 384.265,328.539 382.5,329.5C 376.458,328.345 370.458,327.012 364.5,325.5C 364.5,324.5 364.5,323.5 364.5,322.5C 350.715,317.246 341.715,307.579 337.5,293.5C 338.947,292.866 339.613,291.699 339.5,290C 338.46,287.263 337.793,284.429 337.5,281.5C 337.963,274.473 338.63,267.473 339.5,260.5C 339.547,258.962 338.88,257.962 337.5,257.5C 337.5,256.167 337.5,254.833 337.5,253.5C 339.176,252.817 339.843,251.483 339.5,249.5C 341.256,248.448 341.923,246.781 341.5,244.5C 342.338,244.158 342.672,243.492 342.5,242.5C 343.833,242.5 344.5,241.833 344.5,240.5C 348.768,236.56 352.768,232.226 356.5,227.5C 357.246,226.264 357.579,224.93 357.5,223.5C 365.758,218.785 374.091,213.785 382.5,208.5C 384.045,207.548 385.712,207.215 387.5,207.5C 387.5,206.5 387.5,205.5 387.5,204.5C 389.167,204.5 390.833,204.5 392.5,204.5 Z"/></g>
<g><path style="opacity:1" fill="#3987b3" d="M 322.5,198.5 C 322.789,201.649 322.289,204.649 321,207.5C 320.833,224 320.667,240.5 320.5,257C 320.534,274.41 321.201,291.743 322.5,309C 321.204,311.734 320.704,314.567 321,317.5C 322.821,314.349 324.821,311.349 327,308.5C 327.671,307.748 328.504,307.414 329.5,307.5C 329.546,310.551 328.546,313.218 326.5,315.5C 324.457,317.208 322.79,319.208 321.5,321.5C 320.311,322.429 318.978,322.762 317.5,322.5C 317.5,323.5 317.5,324.5 317.5,325.5C 314.105,327.537 310.438,328.87 306.5,329.5C 306.5,328.5 306.5,327.5 306.5,326.5C 305.022,326.762 303.689,326.429 302.5,325.5C 305.135,324.728 307.801,324.562 310.5,325C 312.717,323.732 314.717,322.232 316.5,320.5C 315.68,302.877 315.18,285.21 315,267.5C 313.964,264.705 312.631,262.038 311,259.5C 310.12,261.739 308.62,263.405 306.5,264.5C 302.886,261.572 300.553,257.905 299.5,253.5C 301.364,254.82 303.031,256.487 304.5,258.5C 305.325,259.386 306.325,259.719 307.5,259.5C 311.341,239.137 315.341,218.804 319.5,198.5C 320.5,198.5 321.5,198.5 322.5,198.5 Z"/></g>
<g><path style="opacity:1" fill="#2e7ea8" d="M 450.5,200.5 C 455.095,202.071 459.762,203.404 464.5,204.5C 464.5,205.5 464.5,206.5 464.5,207.5C 469.264,209.202 473.264,211.868 476.5,215.5C 476.5,216.5 476.5,217.5 476.5,218.5C 473.577,217.705 470.91,216.372 468.5,214.5C 467.5,214.833 466.833,215.5 466.5,216.5C 470.168,219.875 470.168,223.042 466.5,226C 467,226.5 467.5,227 468,227.5C 469.086,251.931 468.586,276.265 466.5,300.5C 471.413,298.254 475.079,294.588 477.5,289.5C 479.045,288.548 480.712,288.215 482.5,288.5C 478.552,293.122 474.552,297.789 470.5,302.5C 469.754,303.736 469.421,305.07 469.5,306.5C 466.5,307.833 463.5,309.167 460.5,310.5C 460.082,309.778 459.416,309.278 458.5,309C 459.303,304.586 459.803,300.086 460,295.5C 460.456,266.754 460.623,238.087 460.5,209.5C 458.362,208.256 456.362,206.756 454.5,205C 452.866,204.506 451.199,204.34 449.5,204.5C 450.234,203.292 450.567,201.959 450.5,200.5 Z"/></g>
<g><path style="opacity:1" fill="#1e406a" d="M 47.5,198.5 C 49.8333,198.5 52.1667,198.5 54.5,198.5C 54.1751,239.697 54.5084,280.864 55.5,322C 53.9277,323.882 53.261,325.715 53.5,327.5C 51.4727,327.662 49.4727,327.495 47.5,327C 46.9186,326.107 46.5852,325.107 46.5,324C 47.4155,282.155 47.7488,240.322 47.5,198.5 Z"/></g>
<g><path style="opacity:1" fill="#246691" d="M 252.5,198.5 C 255.748,198.664 258.748,199.664 261.5,201.5C 265.508,207.825 269.842,213.825 274.5,219.5C 275.323,224.817 277.823,229.15 282,232.5C 282.31,236.641 284.477,238.975 288.5,239.5C 287.828,242.908 288.828,245.575 291.5,247.5C 291.062,248.506 290.396,248.506 289.5,247.5C 288.686,249.766 288.186,252.1 288,254.5C 287.178,276.543 287.345,298.543 288.5,320.5C 286.996,322.959 284.829,324.626 282,325.5C 280.509,323.996 278.676,323.163 276.5,323C 274.11,318.436 271.11,314.269 267.5,310.5C 266.272,308.679 264.606,307.679 262.5,307.5C 257.003,299.197 251.003,291.197 244.5,283.5C 243.691,281.929 243.357,280.262 243.5,278.5C 244.833,278.5 246.167,278.5 247.5,278.5C 247.262,282.099 248.262,282.433 250.5,279.5C 251.5,280.833 252.5,282.167 253.5,283.5C 255.915,282.081 256.081,280.415 254,278.5C 253.667,256.5 253.333,234.5 253,212.5C 251.977,211.4 251.477,210.067 251.5,208.5C 252.21,205.201 252.543,201.867 252.5,198.5 Z"/></g>
<g><path style="opacity:1" fill="#25456d" d="M 228.5,289.5 C 225.789,303.568 222.789,317.568 219.5,331.5C 206.15,331.833 192.817,331.499 179.5,330.5C 174.662,329.509 171.329,326.842 169.5,322.5C 171.5,323.833 173.5,325.167 175.5,326.5C 187.972,329.052 200.305,328.552 212.5,325C 208.154,325.081 204.987,323.247 203,319.5C 202.667,302.167 202.333,284.833 202,267.5C 199.139,265.483 197.305,262.817 196.5,259.5C 199.865,263.518 202.198,262.851 203.5,257.5C 204.551,246.634 206.551,235.968 209.5,225.5C 210.5,225.5 211.5,225.5 212.5,225.5C 212.5,223.167 212.5,220.833 212.5,218.5C 213.552,218.649 214.552,218.483 215.5,218C 217.833,215 220.167,212 222.5,209C 224.167,208.333 225.833,208.333 227.5,209C 226.833,232.333 226.167,255.667 225.5,279C 226.5,279.333 227.5,279.667 228.5,280C 227.606,282.068 226.94,284.235 226.5,286.5C 226.453,288.038 227.12,289.038 228.5,289.5 Z"/></g>
<g><path style="opacity:1" fill="#2d87b8" d="M 476.5,218.5 C 479.812,221.319 482.146,224.819 483.5,229C 483.039,232.554 481.706,235.72 479.5,238.5C 479.833,239.5 480.5,240.167 481.5,240.5C 481.833,244.833 482.167,249.167 482.5,253.5C 482.416,258.473 481.749,263.307 480.5,268C 481.5,269.667 482.5,271.333 483.5,273C 482.483,275.787 482.316,278.62 483,281.5C 483.671,282.252 484.504,282.586 485.5,282.5C 485.25,284.941 484.25,286.941 482.5,288.5C 480.712,288.215 479.045,288.548 477.5,289.5C 475.079,294.588 471.413,298.254 466.5,300.5C 468.586,276.265 469.086,251.931 468,227.5C 467.5,227 467,226.5 466.5,226C 470.168,223.042 470.168,219.875 466.5,216.5C 466.833,215.5 467.5,214.833 468.5,214.5C 470.91,216.372 473.577,217.705 476.5,218.5 Z"/></g>
<g><path style="opacity:1" fill="#20335a" d="M 47.5,198.5 C 47.7488,240.322 47.4155,282.155 46.5,324C 46.5852,325.107 46.9186,326.107 47.5,327C 49.4727,327.495 51.4727,327.662 53.5,327.5C 52.1938,328.467 51.5271,329.801 51.5,331.5C 39.5,331.5 27.5,331.5 15.5,331.5C 15.19,328.287 15.5233,325.287 16.5,322.5C 18.2132,323.635 18.8799,325.302 18.5,327.5C 25.5,327.5 32.5,327.5 39.5,327.5C 39.2308,325.571 39.7308,323.905 41,322.5C 41.6667,299.833 41.6667,277.167 41,254.5C 40.5193,250.469 39.8527,246.469 39,242.5C 38.6667,243.167 38.3333,243.833 38,244.5C 37.3333,243.167 36.6667,243.167 36,244.5C 34.6409,248.405 33.8076,252.405 33.5,256.5C 32.5,256.5 31.5,256.5 30.5,256.5C 34.345,237.275 38.0117,217.942 41.5,198.5C 43.5,198.5 45.5,198.5 47.5,198.5 Z"/></g>
<g><path style="opacity:1" fill="#1b2f59" d="M 163.5,213.5 C 164.67,215.279 166.336,216.279 168.5,216.5C 169.11,217.391 169.443,218.391 169.5,219.5C 169.343,220.873 169.51,222.207 170,223.5C 173.311,226.792 174.978,230.792 175,235.5C 175.333,234.833 175.667,234.167 176,233.5C 180.415,237.254 181.582,241.588 179.5,246.5C 180.893,248.94 181.727,251.607 182,254.5C 182.419,253.328 183.085,252.328 184,251.5C 185.518,251.057 186.685,251.724 187.5,253.5C 186.675,254.386 185.675,254.719 184.5,254.5C 184.667,276.836 184.5,299.169 184,321.5C 183.626,322.416 183.126,323.25 182.5,324C 180.073,324.902 177.74,325.736 175.5,326.5C 173.5,325.167 171.5,323.833 169.5,322.5C 166.174,317.839 162.841,313.172 159.5,308.5C 160.15,308.196 160.817,307.863 161.5,307.5C 162.862,310.687 165.195,312.187 168.5,312C 167.89,310.053 167.057,308.219 166,306.5C 165.333,280.167 165.333,253.833 166,227.5C 167.557,224.706 167.89,221.706 167,218.5C 164.842,217.511 163.675,215.844 163.5,213.5 Z"/></g>
<g><path style="opacity:0.973" fill="#445a79" d="M 420.5,228.5 C 414.671,253.565 408.671,278.565 402.5,303.5C 402.5,304.833 401.833,305.5 400.5,305.5C 399.778,304.449 398.778,303.782 397.5,303.5C 402.316,279.923 407.982,256.589 414.5,233.5C 414.167,232.5 413.833,231.5 413.5,230.5C 408.042,235.229 402.709,239.895 397.5,244.5C 397.857,242.411 398.523,240.411 399.5,238.5C 404.295,234.972 408.961,231.305 413.5,227.5C 416.795,226.306 418.295,227.639 418,231.5C 418.236,229.881 419.069,228.881 420.5,228.5 Z"/></g>
<g><path style="opacity:1" fill="#3998c7" d="M 476.5,215.5 C 477.675,215.281 478.675,215.614 479.5,216.5C 492.896,231.686 496.896,249.02 491.5,268.5C 490.62,271.111 489.954,273.778 489.5,276.5C 488.615,278.977 487.282,280.977 485.5,282.5C 484.504,282.586 483.671,282.252 483,281.5C 482.316,278.62 482.483,275.787 483.5,273C 482.5,271.333 481.5,269.667 480.5,268C 481.749,263.307 482.416,258.473 482.5,253.5C 482.167,249.167 481.833,244.833 481.5,240.5C 480.5,240.167 479.833,239.5 479.5,238.5C 481.706,235.72 483.039,232.554 483.5,229C 482.146,224.819 479.812,221.319 476.5,218.5C 476.5,217.5 476.5,216.5 476.5,215.5 Z"/></g>
<g><path style="opacity:0.998" fill="#202b56" d="M 16.5,322.5 C 20.4617,300.339 25.1284,278.339 30.5,256.5C 31.5,256.5 32.5,256.5 33.5,256.5C 33.8076,252.405 34.6409,248.405 36,244.5C 36.6667,243.167 37.3333,243.167 38,244.5C 38.3333,243.833 38.6667,243.167 39,242.5C 39.8527,246.469 40.5193,250.469 41,254.5C 41.6667,277.167 41.6667,299.833 41,322.5C 39.7308,323.905 39.2308,325.571 39.5,327.5C 32.5,327.5 25.5,327.5 18.5,327.5C 18.8799,325.302 18.2132,323.635 16.5,322.5 Z"/></g>
<g><path style="opacity:1" fill="#1e3861" d="M 169.5,219.5 C 171.078,220.066 172.412,221.066 173.5,222.5C 176.905,230.582 181.905,237.582 188.5,243.5C 190.545,246.862 192.545,250.195 194.5,253.5C 194.604,255.703 195.27,257.703 196.5,259.5C 197.305,262.817 199.139,265.483 202,267.5C 202.333,284.833 202.667,302.167 203,319.5C 204.987,323.247 208.154,325.081 212.5,325C 200.305,328.552 187.972,329.052 175.5,326.5C 177.74,325.736 180.073,324.902 182.5,324C 183.126,323.25 183.626,322.416 184,321.5C 184.5,299.169 184.667,276.836 184.5,254.5C 185.675,254.719 186.675,254.386 187.5,253.5C 186.685,251.724 185.518,251.057 184,251.5C 183.085,252.328 182.419,253.328 182,254.5C 181.727,251.607 180.893,248.94 179.5,246.5C 181.582,241.588 180.415,237.254 176,233.5C 175.667,234.167 175.333,234.833 175,235.5C 174.978,230.792 173.311,226.792 170,223.5C 169.51,222.207 169.343,220.873 169.5,219.5 Z"/></g>
<g><path style="opacity:0.325" fill="#76889c" d="M 194.5,253.5 C 197.124,254.79 199.124,256.79 200.5,259.5C 201.265,258.388 202.265,257.721 203.5,257.5C 202.198,262.851 199.865,263.518 196.5,259.5C 195.27,257.703 194.604,255.703 194.5,253.5 Z"/></g>
<g><path style="opacity:1" fill="#2b7aa7" d="M 274.5,219.5 C 275.376,219.369 276.043,219.702 276.5,220.5C 283.447,232.082 291.114,243.082 299.5,253.5C 300.553,257.905 302.886,261.572 306.5,264.5C 308.62,263.405 310.12,261.739 311,259.5C 312.631,262.038 313.964,264.705 315,267.5C 315.18,285.21 315.68,302.877 316.5,320.5C 314.717,322.232 312.717,323.732 310.5,325C 307.801,324.562 305.135,324.728 302.5,325.5C 303.689,326.429 305.022,326.762 306.5,326.5C 306.5,327.5 306.5,328.5 306.5,329.5C 297.459,332.3 288.459,331.967 279.5,328.5C 278.052,327.646 276.719,326.646 275.5,325.5C 270.717,319.734 266.384,313.734 262.5,307.5C 264.606,307.679 266.272,308.679 267.5,310.5C 271.11,314.269 274.11,318.436 276.5,323C 278.676,323.163 280.509,323.996 282,325.5C 284.829,324.626 286.996,322.959 288.5,320.5C 287.345,298.543 287.178,276.543 288,254.5C 288.186,252.1 288.686,249.766 289.5,247.5C 290.396,248.506 291.062,248.506 291.5,247.5C 288.828,245.575 287.828,242.908 288.5,239.5C 284.477,238.975 282.31,236.641 282,232.5C 277.823,229.15 275.323,224.817 274.5,219.5 Z"/></g>
<g><path style="opacity:1" fill="#3e466d" d="M 336.5,257.5 C 336.833,257.5 337.167,257.5 337.5,257.5C 338.88,257.962 339.547,258.962 339.5,260.5C 338.63,267.473 337.963,274.473 337.5,281.5C 337.793,284.429 338.46,287.263 339.5,290C 339.613,291.699 338.947,292.866 337.5,293.5C 335.514,287.812 334.514,281.812 334.5,275.5C 334.838,269.435 335.505,263.435 336.5,257.5 Z"/></g>
<g><path style="opacity:1" fill="#21456e" d="M 402.5,303.5 C 409.833,303.5 417.167,303.5 424.5,303.5C 425.806,304.467 426.473,305.801 426.5,307.5C 427.5,307.5 428.5,307.5 429.5,307.5C 429.281,306.325 429.614,305.325 430.5,304.5C 431.396,303.494 432.062,303.494 432.5,304.5C 432.46,309.055 432.293,313.722 432,318.5C 430.795,321.229 428.962,323.395 426.5,325C 426.743,325.902 427.077,326.735 427.5,327.5C 426.833,327.5 426.167,327.5 425.5,327.5C 425.209,326.351 424.376,325.684 423,325.5C 417.978,326.248 413.145,327.248 408.5,328.5C 405.813,328.664 403.146,328.497 400.5,328C 399.874,327.25 399.374,326.416 399,325.5C 400.285,318.759 400.785,312.092 400.5,305.5C 401.833,305.5 402.5,304.833 402.5,303.5 Z"/></g>
<g><path style="opacity:0.725" fill="#5c728d" d="M 425.5,327.5 C 423.283,329.08 420.616,330.08 417.5,330.5C 414.572,331.484 411.572,331.817 408.5,331.5C 408.5,330.5 408.5,329.5 408.5,328.5C 413.145,327.248 417.978,326.248 423,325.5C 424.376,325.684 425.209,326.351 425.5,327.5 Z"/></g>
<g><path style="opacity:0.169" fill="#909ab1" d="M 388.5,331.5 C 385.918,331.975 383.918,331.308 382.5,329.5C 384.265,328.539 386.265,328.205 388.5,328.5C 388.5,329.5 388.5,330.5 388.5,331.5 Z"/></g>
<g><path style="opacity:0.655" fill="#8d90a6" d="M 76.5,340.5 C 74.7839,340.371 73.1172,340.038 71.5,339.5C 71.7573,336.068 72.424,332.734 73.5,329.5C 74.5,329.5 75.5,329.5 76.5,329.5C 76.5,333.167 76.5,336.833 76.5,340.5 Z"/></g>
<g><path style="opacity:1" fill="#2f86b6" d="M 311.5,346.5 C 319.5,346.5 327.5,346.5 335.5,346.5C 335.5,348.833 335.5,351.167 335.5,353.5C 333.833,353.5 332.167,353.5 330.5,353.5C 330.55,358.678 328.383,362.678 324,365.5C 321.791,370.637 318.124,374.304 313,376.5C 312.585,378.291 311.585,379.624 310,380.5C 309.506,382.134 309.34,383.801 309.5,385.5C 306.167,385.5 304.5,387.167 304.5,390.5C 303.15,394.517 300.483,397.183 296.5,398.5C 296.649,397.448 296.483,396.448 296,395.5C 291.759,392.863 291.926,390.197 296.5,387.5C 297.665,378.518 297.832,369.518 297,360.5C 294.833,359 295,357.833 297.5,357C 296.86,353.694 294.86,351.694 291.5,351C 296.657,349.717 301.99,349.05 307.5,349C 309.32,348.8 310.653,347.966 311.5,346.5 Z"/></g>
<g><path style="opacity:0.608" fill="#539dbd" d="M 335.5,346.5 C 336.833,346.5 338.167,346.5 339.5,346.5C 339.799,348.604 339.466,350.604 338.5,352.5C 334.018,357.461 330.018,362.794 326.5,368.5C 321.8,373.534 317.466,378.867 313.5,384.5C 310.714,386.977 307.714,388.977 304.5,390.5C 304.5,387.167 306.167,385.5 309.5,385.5C 309.34,383.801 309.506,382.134 310,380.5C 311.585,379.624 312.585,378.291 313,376.5C 318.124,374.304 321.791,370.637 324,365.5C 328.383,362.678 330.55,358.678 330.5,353.5C 332.167,353.5 333.833,353.5 335.5,353.5C 335.5,351.167 335.5,348.833 335.5,346.5 Z"/></g>
<g><path style="opacity:0.998" fill="#202c56" d="M 71.5,339.5 C 73.1172,340.038 74.7839,340.371 76.5,340.5C 77.4763,359.076 82.4763,376.41 91.5,392.5C 92.1053,397.454 94.4387,401.454 98.5,404.5C 99.4168,405.127 100.417,405.461 101.5,405.5C 107.802,410.256 114.469,414.589 121.5,418.5C 125.274,420.484 129.274,421.484 133.5,421.5C 133.5,422.5 133.5,423.5 133.5,424.5C 138.641,424.345 143.641,425.012 148.5,426.5C 149.23,428.045 150.563,428.878 152.5,429C 157.864,429.171 163.198,429.671 168.5,430.5C 167.167,431.833 165.833,433.167 164.5,434.5C 165.648,436.149 166.981,437.649 168.5,439C 167.183,446.5 167.183,454 168.5,461.5C 141.705,464.887 117.372,458.887 95.5,443.5C 91.6635,436.98 86.9968,430.98 81.5,425.5C 77.6394,417.891 74.3061,410.058 71.5,402C 70.6969,396.863 70.3636,391.697 70.5,386.5C 71.8199,374.402 71.8199,362.402 70.5,350.5C 70.3227,346.766 70.6561,343.099 71.5,339.5 Z"/></g>
<g><path style="opacity:1" fill="#2975a1" d="M 311.5,346.5 C 310.653,347.966 309.32,348.8 307.5,349C 301.99,349.05 296.657,349.717 291.5,351C 294.86,351.694 296.86,353.694 297.5,357C 295,357.833 294.833,359 297,360.5C 297.832,369.518 297.665,378.518 296.5,387.5C 291.926,390.197 291.759,392.863 296,395.5C 296.483,396.448 296.649,397.448 296.5,398.5C 295.735,400.929 294.069,402.262 291.5,402.5C 291.52,404.143 290.853,405.476 289.5,406.5C 284.266,410.211 279.266,414.211 274.5,418.5C 272.488,420.341 270.155,421.341 267.5,421.5C 267.5,422.5 267.5,423.5 267.5,424.5C 265.5,425.167 263.5,425.833 261.5,426.5C 260.483,422.219 262.15,419.886 266.5,419.5C 266.787,416.316 268.453,414.316 271.5,413.5C 270.372,412.738 269.205,412.071 268,411.5C 267.448,402.127 267.448,392.793 268,383.5C 267.586,383.043 267.086,382.709 266.5,382.5C 265.685,384.276 264.518,384.943 263,384.5C 261.855,383.364 260.688,382.364 259.5,381.5C 269.436,371.12 278.436,359.787 286.5,347.5C 294.807,346.502 303.14,346.169 311.5,346.5 Z"/></g>
<g><path style="opacity:1" fill="#4e5576" d="M 70.5,350.5 C 71.8199,362.402 71.8199,374.402 70.5,386.5C 69.1707,380.872 68.504,374.872 68.5,368.5C 68.504,362.128 69.1707,356.128 70.5,350.5 Z"/></g>
<g><path style="opacity:1" fill="#28618a" d="M 259.5,381.5 C 260.688,382.364 261.855,383.364 263,384.5C 264.518,384.943 265.685,384.276 266.5,382.5C 267.086,382.709 267.586,383.043 268,383.5C 267.448,392.793 267.448,402.127 268,411.5C 269.205,412.071 270.372,412.738 271.5,413.5C 268.453,414.316 266.787,416.316 266.5,419.5C 262.15,419.886 260.483,422.219 261.5,426.5C 255.261,431.213 248.594,435.546 241.5,439.5C 239.955,440.452 238.288,440.785 236.5,440.5C 236.5,441.5 236.5,442.5 236.5,443.5C 231.167,445.5 225.833,447.5 220.5,449.5C 220.238,448.022 220.571,446.689 221.5,445.5C 224.341,444.025 227.341,442.859 230.5,442C 225.407,440.445 225.407,439.612 230.5,439.5C 230.5,430.833 230.5,422.167 230.5,413.5C 229.127,413.657 227.793,413.49 226.5,413C 226.36,411.736 226.36,410.569 226.5,409.5C 224.208,412.353 221.542,413.02 218.5,411.5C 228.309,404.961 238.309,398.294 248.5,391.5C 252.162,388.194 255.829,384.861 259.5,381.5 Z"/></g>
<g><path style="opacity:0.506" fill="#6f7691" d="M 91.5,392.5 C 94.5917,394.627 97.2584,397.293 99.5,400.5C 100.562,402.022 101.229,403.688 101.5,405.5C 100.417,405.461 99.4168,405.127 98.5,404.5C 94.4387,401.454 92.1053,397.454 91.5,392.5 Z"/></g>
<g><path style="opacity:1" fill="#274971" d="M 220.5,449.5 C 206,455.209 191,459.209 175.5,461.5C 175.33,460.178 175.663,459.011 176.5,458C 181.682,457.869 186.682,456.869 191.5,455C 190.681,445.911 190.181,436.744 190,427.5C 187.501,426.202 185.167,426.536 183,428.5C 182.5,436.493 182.334,444.493 182.5,452.5C 181.5,452.5 180.5,452.5 179.5,452.5C 179.5,444.167 179.5,435.833 179.5,427.5C 176.061,427.747 172.728,427.414 169.5,426.5C 174.056,424.558 179.056,423.892 184.5,424.5C 184.5,423.5 184.5,422.5 184.5,421.5C 187.572,421.817 190.572,421.484 193.5,420.5C 201.845,417.36 210.179,414.36 218.5,411.5C 221.542,413.02 224.208,412.353 226.5,409.5C 226.36,410.569 226.36,411.736 226.5,413C 227.793,413.49 229.127,413.657 230.5,413.5C 230.5,422.167 230.5,430.833 230.5,439.5C 225.407,439.612 225.407,440.445 230.5,442C 227.341,442.859 224.341,444.025 221.5,445.5C 220.571,446.689 220.238,448.022 220.5,449.5 Z"/></g>
<g><path style="opacity:1" fill="#1c3760" d="M 148.5,426.5 C 155.5,426.5 162.5,426.5 169.5,426.5C 172.728,427.414 176.061,427.747 179.5,427.5C 179.5,435.833 179.5,444.167 179.5,452.5C 180.5,452.5 181.5,452.5 182.5,452.5C 182.334,444.493 182.5,436.493 183,428.5C 185.167,426.536 187.501,426.202 190,427.5C 190.181,436.744 190.681,445.911 191.5,455C 186.682,456.869 181.682,457.869 176.5,458C 175.663,459.011 175.33,460.178 175.5,461.5C 173.167,461.5 170.833,461.5 168.5,461.5C 167.183,454 167.183,446.5 168.5,439C 166.981,437.649 165.648,436.149 164.5,434.5C 165.833,433.167 167.167,431.833 168.5,430.5C 163.198,429.671 157.864,429.171 152.5,429C 150.563,428.878 149.23,428.045 148.5,426.5 Z"/></g>
</svg>
