<?xml version="1.0" encoding="UTF-8"?>
<!DOCTYPE svg PUBLIC "-//W3C//DTD SVG 1.1//EN" "http://www.w3.org/Graphics/SVG/1.1/DTD/svg11.dtd">
<svg xmlns="http://www.w3.org/2000/svg" version="1.1" width="308px" height="243px" style="shape-rendering:geometricPrecision; text-rendering:geometricPrecision; image-rendering:optimizeQuality; fill-rule:evenodd; clip-rule:evenodd" xmlns:xlink="http://www.w3.org/1999/xlink">
<g><path style="opacity:1" fill="#254972" d="M 160.5,47.5 C 164.182,47.3347 167.848,47.5014 171.5,48C 170.328,48.4186 169.328,49.0853 168.5,50C 170.072,52.038 171.072,54.3713 171.5,57C 165.175,57.4995 158.842,57.6662 152.5,57.5C 152.918,56.7784 153.584,56.2784 154.5,56C 152.808,54.5993 152.141,52.7659 152.5,50.5C 150.833,50.5 149.167,50.5 147.5,50.5C 151.515,48.6268 155.849,47.6268 160.5,47.5 Z"/></g>
<g><path style="opacity:1" fill="#33638b" d="M 187.5,46.5 C 188.54,50.7799 188.706,55.1132 188,59.5C 187.184,60.8228 186.017,61.4894 184.5,61.5C 181.521,60.6827 178.521,59.8494 175.5,59C 167.173,58.5003 158.84,58.3336 150.5,58.5C 150.842,57.6618 151.508,57.3284 152.5,57.5C 158.842,57.6662 165.175,57.4995 171.5,57C 171.072,54.3713 170.072,52.038 168.5,50C 169.328,49.0853 170.328,48.4186 171.5,48C 167.848,47.5014 164.182,47.3347 160.5,47.5C 169.327,45.4719 178.327,45.1385 187.5,46.5 Z"/></g>
<g><path style="opacity:1" fill="#28739f" d="M 187.5,46.5 C 196.307,46.9912 204.307,49.6578 211.5,54.5C 209.774,54.1854 208.107,54.0187 206.5,54C 207.328,54.9147 208.328,55.5814 209.5,56C 208.853,59.2485 208.519,62.5819 208.5,66C 208.839,73.5356 209.505,81.0356 210.5,88.5C 209.5,88.5 208.5,88.5 207.5,88.5C 203.771,76.1072 196.104,67.1072 184.5,61.5C 186.017,61.4894 187.184,60.8228 188,59.5C 188.706,55.1132 188.54,50.7799 187.5,46.5 Z"/></g>
<g><path style="opacity:1" fill="#1e3961" d="M 147.5,50.5 C 149.167,50.5 150.833,50.5 152.5,50.5C 152.141,52.7659 152.808,54.5993 154.5,56C 153.584,56.2784 152.918,56.7784 152.5,57.5C 151.508,57.3284 150.842,57.6618 150.5,58.5C 146.106,58.8437 141.772,59.5103 137.5,60.5C 136.316,59.3121 136.316,58.1455 137.5,57C 136.437,55.8118 135.103,55.3118 133.5,55.5C 137.799,53.0649 142.466,51.3982 147.5,50.5 Z"/></g>
<g><path style="opacity:1" fill="#2f85b4" d="M 211.5,54.5 C 216.063,56.3954 219.73,59.3954 222.5,63.5C 222.279,64.7348 221.612,65.7348 220.5,66.5C 220.618,73.7125 220.618,81.0458 220.5,88.5C 218.901,88.2322 217.568,88.5655 216.5,89.5C 213.287,89.81 210.287,89.4767 207.5,88.5C 208.5,88.5 209.5,88.5 210.5,88.5C 209.505,81.0356 208.839,73.5356 208.5,66C 208.519,62.5819 208.853,59.2485 209.5,56C 208.328,55.5814 207.328,54.9147 206.5,54C 208.107,54.0187 209.774,54.1854 211.5,54.5 Z"/></g>
<g><path style="opacity:1" fill="#263059" d="M 133.5,55.5 C 135.103,55.3118 136.437,55.8118 137.5,57C 136.316,58.1455 136.316,59.3121 137.5,60.5C 122.545,64.3705 108.545,70.3705 95.5,78.5C 106.206,67.804 118.873,60.1373 133.5,55.5 Z"/></g>
<g><path style="opacity:1" fill="#3090c0" d="M 222.5,63.5 C 229.46,70.7532 233.793,79.4199 235.5,89.5C 229.167,89.5 222.833,89.5 216.5,89.5C 217.568,88.5655 218.901,88.2322 220.5,88.5C 220.618,81.0458 220.618,73.7125 220.5,66.5C 221.612,65.7348 222.279,64.7348 222.5,63.5 Z"/></g>
<g><path style="opacity:1" fill="#505561" d="M 85.5,77.5 C 84.8333,76.1667 84.8333,76.1667 85.5,77.5 Z"/></g>
<g><path style="opacity:1" fill="#263058" d="M 85.5,77.5 C 88.728,78.4137 92.0613,78.7471 95.5,78.5C 93.3018,81.5719 92.9685,84.9053 94.5,88.5C 94.1667,88.8333 93.8333,89.1667 93.5,89.5C 92.1502,88.0499 90.4835,87.3832 88.5,87.5C 87.1667,86.8333 85.8333,86.1667 84.5,85.5C 85.2653,82.9039 85.5987,80.2372 85.5,77.5 Z"/></g>
<g><path style="opacity:1" fill="#25436a" d="M 67.5,83.5 C 66.9518,85.6264 66.2852,87.6264 65.5,89.5C 63.8008,89.6602 62.1341,89.4935 60.5,89C 61.9278,87.0838 62.9278,84.9171 63.5,82.5C 64.7362,83.2458 66.0695,83.5792 67.5,83.5 Z"/></g>
<g><path style="opacity:1" fill="#6c7487" d="M 84.5,85.5 C 85.8333,86.1667 87.1667,86.8333 88.5,87.5C 86.4727,87.6621 84.4727,87.4955 82.5,87C 83.0442,86.2828 83.7109,85.7828 84.5,85.5 Z"/></g>
<g><path style="opacity:1" fill="#367093" d="M 67.5,83.5 C 68.2389,83.369 68.9056,83.5357 69.5,84C 68.5769,86.0408 68.2436,88.2075 68.5,90.5C 67.209,90.7373 66.209,90.404 65.5,89.5C 66.2852,87.6264 66.9518,85.6264 67.5,83.5 Z"/></g>
<g><path style="opacity:1" fill="#234f79" d="M 29.5,94.5 C 32.1667,94.5 34.8333,94.5 37.5,94.5C 37.3197,114.18 37.6531,133.846 38.5,153.5C 38.5,154.5 38.5,155.5 38.5,156.5C 36.1667,156.5 33.8333,156.5 31.5,156.5C 32.071,135.73 31.4043,115.063 29.5,94.5 Z"/></g>
<g><path style="opacity:1" fill="#255c88" d="M 37.5,94.5 C 38.5,94.5 39.5,94.5 40.5,94.5C 40.806,107.704 40.4727,120.871 39.5,134C 40.117,136.884 40.7837,139.717 41.5,142.5C 41.2576,146.479 40.2576,150.146 38.5,153.5C 37.6531,133.846 37.3197,114.18 37.5,94.5 Z"/></g>
<g><path style="opacity:1" fill="#256e99" d="M 40.5,94.5 C 42.8333,94.5 45.1667,94.5 47.5,94.5C 47.7633,100.05 47.4299,105.55 46.5,111C 46.9054,111.945 47.572,112.612 48.5,113C 46.618,117.523 45.618,122.357 45.5,127.5C 44.9244,132.809 43.591,137.809 41.5,142.5C 40.7837,139.717 40.117,136.884 39.5,134C 40.4727,120.871 40.806,107.704 40.5,94.5 Z"/></g>
<g><path style="opacity:1" fill="#3286b3" d="M 47.5,94.5 C 49.8333,94.5 52.1667,94.5 54.5,94.5C 52.072,105.766 49.072,116.766 45.5,127.5C 45.618,122.357 46.618,117.523 48.5,113C 47.572,112.612 46.9054,111.945 46.5,111C 47.4299,105.55 47.7633,100.05 47.5,94.5 Z"/></g>
<g><path style="opacity:1" fill="#1e2a54" d="M 100.5,103.5 C 99.4044,117.474 99.2377,131.474 100,145.5C 101.812,147.304 101.646,148.304 99.5,148.5C 92.1733,141.2 84.84,133.867 77.5,126.5C 74.2063,136.004 71.3729,145.67 69,155.5C 62.9242,156.476 56.7576,156.81 50.5,156.5C 55.0188,138.426 59.8521,120.426 65,102.5C 72.3572,95.1629 81.1906,92.6629 91.5,95C 95.6791,96.6814 98.6791,99.5147 100.5,103.5 Z"/></g>
<g><path style="opacity:1" fill="#3591c1" d="M 196.5,94.5 C 201.167,94.5 205.833,94.5 210.5,94.5C 209.284,105.055 205.784,114.722 200,123.5C 199.667,129.167 199.333,134.833 199,140.5C 198.61,143.104 197.776,145.438 196.5,147.5C 197.104,131.388 196.437,115.388 194.5,99.5C 194.902,97.6998 195.569,96.0332 196.5,94.5 Z"/></g>
<g><path style="opacity:1" fill="#2c4f75" d="M 263.5,94.5 C 260.662,96.3059 260.995,97.3059 264.5,97.5C 264.611,98.1174 264.944,98.6174 265.5,99C 264.207,99.49 262.873,99.6567 261.5,99.5C 261.169,101.322 260.502,102.989 259.5,104.5C 257.956,104.297 256.622,103.63 255.5,102.5C 249.868,116.064 245.201,130.064 241.5,144.5C 240.833,144.167 240.167,143.833 239.5,143.5C 242.823,132.529 246.156,121.529 249.5,110.5C 249.253,109.287 248.586,108.62 247.5,108.5C 247.717,104.958 247.717,101.291 247.5,97.5C 245.257,96.5258 242.924,96.1924 240.5,96.5C 247.923,94.7454 255.589,94.0787 263.5,94.5 Z"/></g>
<g><path style="opacity:1" fill="#1e3760" d="M 29.5,94.5 C 31.4043,115.063 32.071,135.73 31.5,156.5C 24.1667,156.5 16.8333,156.5 9.5,156.5C 9.26269,155.209 9.59603,154.209 10.5,153.5C 12.5706,154.809 15.0706,155.475 18,155.5C 20.5,155.333 23,155.167 25.5,155C 26.0219,154.439 26.3552,153.772 26.5,153C 25.6936,139.866 25.1936,126.699 25,113.5C 24.5814,112.328 23.9147,111.328 23,110.5C 23,112.5 23,114.5 23,116.5C 22.3292,115.748 21.4959,115.414 20.5,115.5C 22.323,108.541 23.9896,101.541 25.5,94.5C 26.8333,94.5 28.1667,94.5 29.5,94.5 Z"/></g>
<g><path style="opacity:1" fill="#21355d" d="M 236.5,97.5 C 238.124,97.3601 239.29,98.0267 240,99.5C 240.588,104.528 240.422,109.528 239.5,114.5C 237.463,121.338 235.13,128.005 232.5,134.5C 232.505,131.468 232.838,128.468 233.5,125.5C 233.258,116.456 232.258,107.789 230.5,99.5C 232.214,98.2616 234.214,97.595 236.5,97.5 Z"/></g>
<g><path style="opacity:1" fill="#25517a" d="M 149.5,94.5 C 149.667,106.171 149.5,117.838 149,129.5C 148.623,130.942 147.79,131.942 146.5,132.5C 144.539,130.037 142.372,127.703 140,125.5C 139.302,128.004 138.469,130.337 137.5,132.5C 135.332,121.227 134.999,109.894 136.5,98.5C 134.784,98.6287 133.117,98.962 131.5,99.5C 136.7,95.4394 142.7,93.7727 149.5,94.5 Z"/></g>
<g><path style="opacity:1" fill="#1d2a55" d="M 230.5,99.5 C 232.258,107.789 233.258,116.456 233.5,125.5C 232.838,128.468 232.505,131.468 232.5,134.5C 231.99,137.539 231.323,140.539 230.5,143.5C 229.957,143.56 229.624,143.893 229.5,144.5C 231.743,145.474 234.076,145.808 236.5,145.5C 236.216,148.777 236.549,151.943 237.5,155C 235.19,155.497 232.857,155.663 230.5,155.5C 220.296,154.481 211.796,150.148 205,142.5C 200.149,133.661 200.483,124.994 206,116.5C 212.568,108.471 220.735,102.804 230.5,99.5 Z"/></g>
<g><path style="opacity:1" fill="#214069" d="M 236.5,97.5 C 237.568,96.5655 238.901,96.2322 240.5,96.5C 242.924,96.1924 245.257,96.5258 247.5,97.5C 247.717,101.291 247.717,104.958 247.5,108.5C 245.14,110.853 242.473,112.853 239.5,114.5C 240.422,109.528 240.588,104.528 240,99.5C 239.29,98.0267 238.124,97.3601 236.5,97.5 Z"/></g>
<g><path style="opacity:1" fill="#275e87" d="M 149.5,94.5 C 155.332,94.6532 159.665,97.3198 162.5,102.5C 161.307,110.234 160.64,118.067 160.5,126C 160.509,132.744 160.842,139.411 161.5,146C 160.906,146.464 160.239,146.631 159.5,146.5C 155.195,141.859 150.861,137.193 146.5,132.5C 147.79,131.942 148.623,130.942 149,129.5C 149.5,117.838 149.667,106.171 149.5,94.5 Z"/></g>
<g><path style="opacity:1" fill="#23456d" d="M 137.5,132.5 C 135.973,140.276 133.973,147.943 131.5,155.5C 123.677,156.82 116.01,156.82 108.5,155.5C 114.925,155.87 121.258,155.37 127.5,154C 125.324,153.837 123.491,153.004 122,151.5C 121.779,142.453 121.279,133.453 120.5,124.5C 123.416,117.863 125.583,110.863 127,103.5C 128.371,101.959 129.871,100.625 131.5,99.5C 133.117,98.962 134.784,98.6287 136.5,98.5C 134.999,109.894 135.332,121.227 137.5,132.5 Z"/></g>
<g><path style="opacity:1" fill="#246892" d="M 162.5,102.5 C 165.167,104.5 167.5,106.833 169.5,109.5C 168.5,109.5 167.5,109.5 166.5,109.5C 167.781,123.48 167.781,137.48 166.5,151.5C 165.583,150.873 164.583,150.539 163.5,150.5C 161.833,149.5 160.5,148.167 159.5,146.5C 160.239,146.631 160.906,146.464 161.5,146C 160.842,139.411 160.509,132.744 160.5,126C 160.64,118.067 161.307,110.234 162.5,102.5 Z"/></g>
<g><path style="opacity:1" fill="#2d83b1" d="M 273.5,96.5 C 279.271,97.8833 284.271,100.55 288.5,104.5C 288.703,106.044 289.37,107.378 290.5,108.5C 289.5,109.833 288.5,111.167 287.5,112.5C 288.715,120.135 289.715,127.468 290.5,134.5C 286.722,139.617 282.055,143.617 276.5,146.5C 276.74,130.776 277.74,115.276 279.5,100C 276.981,99.4136 274.981,98.2469 273.5,96.5 Z"/></g>
<g><path style="opacity:1" fill="#236e9b" d="M 263.5,94.5 C 266.939,94.7878 270.272,95.4544 273.5,96.5C 274.981,98.2469 276.981,99.4136 279.5,100C 277.74,115.276 276.74,130.776 276.5,146.5C 275.035,147.737 273.368,148.737 271.5,149.5C 270.25,143.335 269.583,137.002 269.5,130.5C 269.525,124.423 270.191,118.59 271.5,113C 270.587,110.667 269.087,108.834 267,107.5C 266.216,104.24 266.383,101.073 267.5,98C 266.552,97.5172 265.552,97.3505 264.5,97.5C 260.995,97.3059 260.662,96.3059 263.5,94.5 Z"/></g>
<g><path style="opacity:1" fill="#1b2f59" d="M 100.5,103.5 C 104.723,107.602 108.723,111.935 112.5,116.5C 112.423,117.75 111.756,118.583 110.5,119C 111.167,119.333 111.833,119.667 112.5,120C 110.535,131.246 109.868,142.746 110.5,154.5C 108.833,154.5 107.167,154.5 105.5,154.5C 102.522,153.522 100.522,151.522 99.5,148.5C 101.646,148.304 101.812,147.304 100,145.5C 99.2377,131.474 99.4044,117.474 100.5,103.5 Z"/></g>
<g><path style="opacity:1" fill="#24729e" d="M 169.5,109.5 C 172.805,113.141 176.138,116.808 179.5,120.5C 179.461,121.583 179.127,122.583 178.5,123.5C 178.938,124.506 179.604,124.506 180.5,123.5C 181.251,124.376 181.751,125.376 182,126.5C 182.004,135.978 182.838,145.311 184.5,154.5C 182.821,154.285 181.821,154.952 181.5,156.5C 176.258,156.977 171.258,156.144 166.5,154C 165.29,152.961 164.29,151.794 163.5,150.5C 164.583,150.539 165.583,150.873 166.5,151.5C 167.781,137.48 167.781,123.48 166.5,109.5C 167.5,109.5 168.5,109.5 169.5,109.5 Z"/></g>
<g><path style="opacity:1" fill="#27618b" d="M 264.5,97.5 C 265.552,97.3505 266.552,97.5172 267.5,98C 266.383,101.073 266.216,104.24 267,107.5C 269.087,108.834 270.587,110.667 271.5,113C 270.191,118.59 269.525,124.423 269.5,130.5C 269.583,137.002 270.25,143.335 271.5,149.5C 265.438,152.298 259.104,154.298 252.5,155.5C 251.105,154.352 251.272,153.352 253,152.5C 253.497,150.19 253.663,147.857 253.5,145.5C 254.791,145.737 255.791,145.404 256.5,144.5C 257.497,144.53 258.164,144.03 258.5,143C 261.641,132.577 264.974,122.244 268.5,112C 265.31,109.636 262.31,107.136 259.5,104.5C 260.502,102.989 261.169,101.322 261.5,99.5C 262.873,99.6567 264.207,99.49 265.5,99C 264.944,98.6174 264.611,98.1174 264.5,97.5 Z"/></g>
<g><path style="opacity:1" fill="#3094c5" d="M 288.5,104.5 C 296.463,111.363 298.297,119.696 294,129.5C 293.303,131.584 292.136,133.251 290.5,134.5C 289.715,127.468 288.715,120.135 287.5,112.5C 288.5,111.167 289.5,109.833 290.5,108.5C 289.37,107.378 288.703,106.044 288.5,104.5 Z"/></g>
<g><path style="opacity:1" fill="#1d3861" d="M 112.5,116.5 C 115.5,118.833 118.167,121.5 120.5,124.5C 121.279,133.453 121.779,142.453 122,151.5C 123.491,153.004 125.324,153.837 127.5,154C 121.258,155.37 114.925,155.87 108.5,155.5C 107.209,155.737 106.209,155.404 105.5,154.5C 107.167,154.5 108.833,154.5 110.5,154.5C 109.868,142.746 110.535,131.246 112.5,120C 111.833,119.667 111.167,119.333 110.5,119C 111.756,118.583 112.423,117.75 112.5,116.5 Z"/></g>
<g><path style="opacity:1" fill="#1e2a55" d="M 10.5,153.5 C 13.2271,140.656 16.5604,127.989 20.5,115.5C 21.4959,115.414 22.3292,115.748 23,116.5C 23,114.5 23,112.5 23,110.5C 23.9147,111.328 24.5814,112.328 25,113.5C 25.1936,126.699 25.6936,139.866 26.5,153C 26.3552,153.772 26.0219,154.439 25.5,155C 23,155.167 20.5,155.333 18,155.5C 15.0706,155.475 12.5706,154.809 10.5,153.5 Z"/></g>
<g><path style="opacity:1" fill="#2f84b2" d="M 196.5,94.5 C 195.569,96.0332 194.902,97.6998 194.5,99.5C 196.437,115.388 197.104,131.388 196.5,147.5C 192.621,152.277 187.621,155.277 181.5,156.5C 181.821,154.952 182.821,154.285 184.5,154.5C 182.838,145.311 182.004,135.978 182,126.5C 181.751,125.376 181.251,124.376 180.5,123.5C 179.604,124.506 178.938,124.506 178.5,123.5C 179.127,122.583 179.461,121.583 179.5,120.5C 181.129,121.625 182.629,122.959 184,124.5C 187.447,114.716 190.281,104.716 192.5,94.5C 193.833,94.5 195.167,94.5 196.5,94.5 Z"/></g>
<g><path style="opacity:1" fill="#26436a" d="M 230.5,143.5 C 233.5,144.833 236.5,144.833 239.5,143.5C 240.167,143.833 240.833,144.167 241.5,144.5C 246.5,144.5 251.5,144.5 256.5,144.5C 255.791,145.404 254.791,145.737 253.5,145.5C 253.663,147.857 253.497,150.19 253,152.5C 251.272,153.352 251.105,154.352 252.5,155.5C 245.038,156.78 237.704,156.78 230.5,155.5C 232.857,155.663 235.19,155.497 237.5,155C 236.549,151.943 236.216,148.777 236.5,145.5C 234.076,145.808 231.743,145.474 229.5,144.5C 229.624,143.893 229.957,143.56 230.5,143.5 Z"/></g>
<g><path style="opacity:1" fill="#81869e" d="M 45.5,161.5 C 44.8333,161.5 44.1667,161.5 43.5,161.5C 44.7418,154.992 45.4085,154.992 45.5,161.5 Z"/></g>
<g><path style="opacity:1" fill="#3187b7" d="M 186.5,164.5 C 192.206,164.171 197.872,164.505 203.5,165.5C 196.073,174.265 187.739,181.932 178.5,188.5C 178.642,181.759 178.642,175.092 178.5,168.5C 177.833,167.833 177.167,167.167 176.5,166.5C 179.977,165.833 183.311,165.166 186.5,164.5 Z"/></g>
<g><path style="opacity:1" fill="#1f2c56" d="M 43.5,161.5 C 44.1667,161.5 44.8333,161.5 45.5,161.5C 47.8327,182.498 59.1661,195.832 79.5,201.5C 82.1418,202.806 84.9751,203.806 88,204.5C 92.4497,203.2 96.9497,203.2 101.5,204.5C 97.625,205.486 97.625,206.653 101.5,208C 100.556,210.719 100.223,213.552 100.5,216.5C 103.925,216.367 104.258,217.033 101.5,218.5C 80.2449,221.362 62.4116,215.029 48,199.5C 41.371,187.414 39.871,174.747 43.5,161.5 Z"/></g>
<g><path style="opacity:1" fill="#2675a1" d="M 186.5,164.5 C 183.311,165.166 179.977,165.833 176.5,166.5C 177.167,167.167 177.833,167.833 178.5,168.5C 178.642,175.092 178.642,181.759 178.5,188.5C 171.765,193.23 164.765,197.563 157.5,201.5C 157.5,200.5 157.5,199.5 157.5,198.5C 160.022,198.872 162.022,198.039 163.5,196C 161.874,196.195 160.207,196.195 158.5,196C 160.215,191.614 161.215,186.947 161.5,182C 161.167,181.5 160.833,181 160.5,180.5C 159.264,181.246 157.93,181.579 156.5,181.5C 162.302,176.53 167.635,171.03 172.5,165C 177.155,164.501 181.821,164.334 186.5,164.5 Z"/></g>
<g><path style="opacity:1" fill="#25638d" d="M 157.5,201.5 C 152.833,203.833 148.167,206.167 143.5,208.5C 144.28,205.899 145.946,203.899 148.5,202.5C 147.86,197.968 147.194,193.468 146.5,189C 147.056,188.617 147.389,188.117 147.5,187.5C 150.291,185.265 153.291,183.265 156.5,181.5C 157.93,181.579 159.264,181.246 160.5,180.5C 160.833,181 161.167,181.5 161.5,182C 161.215,186.947 160.215,191.614 158.5,196C 160.207,196.195 161.874,196.195 163.5,196C 162.022,198.039 160.022,198.872 157.5,198.5C 157.5,199.5 157.5,200.5 157.5,201.5 Z"/></g>
<g><path style="opacity:1" fill="#275780" d="M 147.5,187.5 C 147.389,188.117 147.056,188.617 146.5,189C 147.194,193.468 147.86,197.968 148.5,202.5C 145.946,203.899 144.28,205.899 143.5,208.5C 140.574,209.698 137.574,210.698 134.5,211.5C 134.586,210.504 134.252,209.671 133.5,209C 135.399,204.822 136.065,200.322 135.5,195.5C 134.167,195.5 132.833,195.5 131.5,195.5C 136.795,192.853 142.128,190.186 147.5,187.5 Z"/></g>
<g><path style="opacity:1" fill="#1f375f" d="M 79.5,201.5 C 90.1627,202.75 100.829,202.75 111.5,201.5C 109.259,206.112 108.926,210.945 110.5,216C 108.256,216.05 106.589,216.883 105.5,218.5C 104.167,218.5 102.833,218.5 101.5,218.5C 104.258,217.033 103.925,216.367 100.5,216.5C 100.223,213.552 100.556,210.719 101.5,208C 97.625,206.653 97.625,205.486 101.5,204.5C 96.9497,203.2 92.4497,203.2 88,204.5C 84.9751,203.806 82.1418,202.806 79.5,201.5 Z"/></g>
<g><path style="opacity:1" fill="#24466e" d="M 131.5,195.5 C 132.833,195.5 134.167,195.5 135.5,195.5C 136.065,200.322 135.399,204.822 133.5,209C 134.252,209.671 134.586,210.504 134.5,211.5C 125.124,214.927 115.457,217.261 105.5,218.5C 106.589,216.883 108.256,216.05 110.5,216C 108.926,210.945 109.259,206.112 111.5,201.5C 118.074,199.519 124.741,197.519 131.5,195.5 Z"/></g>
</svg>
