<?xml version="1.0" encoding="UTF-8"?>
<!DOCTYPE svg PUBLIC "-//W3C//DTD SVG 1.1//EN" "http://www.w3.org/Graphics/SVG/1.1/DTD/svg11.dtd">
<svg xmlns="http://www.w3.org/2000/svg" version="1.1" width="873px" height="243px" style="shape-rendering:geometricPrecision; text-rendering:geometricPrecision; image-rendering:optimizeQuality; fill-rule:evenodd; clip-rule:evenodd" xmlns:xlink="http://www.w3.org/1999/xlink">
<g><path style="opacity:1" fill="#fdfdfd" d="M -0.5,-0.5 C 290.5,-0.5 581.5,-0.5 872.5,-0.5C 872.5,80.5 872.5,161.5 872.5,242.5C 581.5,242.5 290.5,242.5 -0.5,242.5C -0.5,161.5 -0.5,80.5 -0.5,-0.5 Z"/></g>
<g><path style="opacity:1" fill="#3574ab" d="M 634.5,42.5 C 635.496,42.4142 636.329,42.7476 637,43.5C 639.293,47.2522 641.46,51.0856 643.5,55C 642.672,55.9147 641.672,56.5814 640.5,57C 648.827,57.4997 657.16,57.6664 665.5,57.5C 665.5,60.1667 665.5,62.8333 665.5,65.5C 646.167,65.5 626.833,65.5 607.5,65.5C 607.5,62.8333 607.5,60.1667 607.5,57.5C 616.192,57.8314 624.859,57.498 633.5,56.5C 631.833,53.1667 630.167,49.8333 628.5,46.5C 630.565,45.1433 632.565,43.81 634.5,42.5 Z"/></g>
<g><path style="opacity:1" fill="#3374ab" d="M 378.5,43.5 C 381.5,43.5 384.5,43.5 387.5,43.5C 387.5,46.8333 387.5,50.1667 387.5,53.5C 397.5,53.5 407.5,53.5 417.5,53.5C 417.5,50.1667 417.5,46.8333 417.5,43.5C 420.5,43.5 423.5,43.5 426.5,43.5C 426.5,46.8333 426.5,50.1667 426.5,53.5C 438.833,53.5 451.167,53.5 463.5,53.5C 463.5,56.5 463.5,59.5 463.5,62.5C 451.167,62.5 438.833,62.5 426.5,62.5C 426.5,64.8333 426.5,67.1667 426.5,69.5C 423.5,69.5 420.5,69.5 417.5,69.5C 417.5,67.1667 417.5,64.8333 417.5,62.5C 407.5,62.5 397.5,62.5 387.5,62.5C 387.5,64.8333 387.5,67.1667 387.5,69.5C 384.5,69.5 381.5,69.5 378.5,69.5C 378.5,67.1667 378.5,64.8333 378.5,62.5C 366.167,62.5 353.833,62.5 341.5,62.5C 341.5,59.5 341.5,56.5 341.5,53.5C 353.833,53.5 366.167,53.5 378.5,53.5C 378.5,50.1667 378.5,46.8333 378.5,43.5 Z"/></g>
<g><path style="opacity:1" fill="#3474ab" d="M 527.5,44.5 C 530.5,44.5 533.5,44.5 536.5,44.5C 536.5,50.1667 536.5,55.8333 536.5,61.5C 546.167,61.5 555.833,61.5 565.5,61.5C 565.5,55.8333 565.5,50.1667 565.5,44.5C 568.5,44.5 571.5,44.5 574.5,44.5C 574.5,50.1667 574.5,55.8333 574.5,61.5C 581.167,61.5 587.833,61.5 594.5,61.5C 594.5,64.5 594.5,67.5 594.5,70.5C 587.833,70.5 581.167,70.5 574.5,70.5C 574.5,75.5 574.5,80.5 574.5,85.5C 571.5,85.5 568.5,85.5 565.5,85.5C 565.5,80.5 565.5,75.5 565.5,70.5C 555.833,70.5 546.167,70.5 536.5,70.5C 536.5,75.5 536.5,80.5 536.5,85.5C 533.5,85.5 530.5,85.5 527.5,85.5C 527.5,80.5 527.5,75.5 527.5,70.5C 520.5,70.5 513.5,70.5 506.5,70.5C 506.5,67.5 506.5,64.5 506.5,61.5C 513.5,61.5 520.5,61.5 527.5,61.5C 527.5,55.8333 527.5,50.1667 527.5,44.5 Z"/></g>
<g><path style="opacity:1" fill="#3675ab" d="M 758.5,165.5 C 758.833,143.49 758.5,121.49 757.5,99.5C 756.893,99.6236 756.56,99.9569 756.5,100.5C 752.875,112.75 747.375,124.083 740,134.5C 738.638,130.942 737.138,127.442 735.5,124C 745.025,110.114 751.692,94.9476 755.5,78.5C 749.5,78.5 743.5,78.5 737.5,78.5C 737.5,75.5 737.5,72.5 737.5,69.5C 744.167,69.5 750.833,69.5 757.5,69.5C 757.5,61.1667 757.5,52.8333 757.5,44.5C 760.833,44.5 764.167,44.5 767.5,44.5C 767.5,52.8333 767.5,61.1667 767.5,69.5C 773.5,69.5 779.5,69.5 785.5,69.5C 785.5,72.5 785.5,75.5 785.5,78.5C 779.5,78.5 773.5,78.5 767.5,78.5C 767.334,83.8437 767.501,89.1771 768,94.5C 769.422,92.3619 771.255,91.1953 773.5,91C 779.878,97.043 785.878,103.376 791.5,110C 789.355,112.145 787.188,114.312 785,116.5C 779.699,110.198 774.032,104.198 768,98.5C 767.5,120.831 767.333,143.164 767.5,165.5C 764.5,165.5 761.5,165.5 758.5,165.5 Z"/></g>
<g><path style="opacity:1" fill="#3675ab" d="M 831.5,147.5 C 832.662,128.338 832.829,109.004 832,89.5C 831.283,90.0442 830.783,90.7109 830.5,91.5C 820.062,114.01 805.062,133.01 785.5,148.5C 782.45,146.451 780.117,143.784 778.5,140.5C 800.231,124.123 816.231,103.456 826.5,78.5C 814.5,78.5 802.5,78.5 790.5,78.5C 790.5,75.5 790.5,72.5 790.5,69.5C 804.167,69.5 817.833,69.5 831.5,69.5C 831.5,61.1667 831.5,52.8333 831.5,44.5C 834.833,44.5 838.167,44.5 841.5,44.5C 841.5,52.8333 841.5,61.1667 841.5,69.5C 847.5,69.5 853.5,69.5 859.5,69.5C 859.5,72.5 859.5,75.5 859.5,78.5C 853.5,78.5 847.5,78.5 841.5,78.5C 841.972,104.231 841.472,129.898 840,155.5C 838.301,159.205 835.467,161.372 831.5,162C 822.84,162.5 814.173,162.666 805.5,162.5C 805.54,159.119 805.207,155.786 804.5,152.5C 811.798,153.559 819.131,153.726 826.5,153C 829.079,151.924 830.746,150.091 831.5,147.5 Z"/></g>
<g><path style="opacity:1" fill="#3c77ad" d="M 484.5,45.5 C 491.448,52.1281 497.781,59.4614 503.5,67.5C 500.837,69.9923 498.004,72.3256 495,74.5C 489.99,66.4807 484.49,58.814 478.5,51.5C 480.533,49.4934 482.533,47.4934 484.5,45.5 Z"/></g>
<g><path style="opacity:1" fill="#25537d" d="M 165.5,46.5 C 171.888,46.3119 178.222,46.8119 184.5,48C 180.544,49.1139 180.544,49.9473 184.5,50.5C 184.5,52.1667 184.5,53.8333 184.5,55.5C 183.5,55.5 182.5,55.5 181.5,55.5C 181.5,56.8333 181.5,58.1667 181.5,59.5C 178.873,58.9084 176.206,58.5751 173.5,58.5C 166.543,57.6136 159.543,57.2803 152.5,57.5C 152.918,56.7784 153.584,56.2784 154.5,56C 153.594,54.3005 153.261,52.4672 153.5,50.5C 151.167,50.5 148.833,50.5 146.5,50.5C 152.562,48.4359 158.895,47.1026 165.5,46.5 Z"/></g>
<g><path style="opacity:1" fill="#3876ac" d="M 718.5,48.5 C 719.675,48.281 720.675,48.6143 721.5,49.5C 722.5,52.1667 723.5,54.8333 724.5,57.5C 710.608,59.9562 696.608,61.6228 682.5,62.5C 682.5,72.1667 682.5,81.8333 682.5,91.5C 697.5,91.5 712.5,91.5 727.5,91.5C 727.5,94.1667 727.5,96.8333 727.5,99.5C 721.5,99.5 715.5,99.5 709.5,99.5C 709.5,121.167 709.5,142.833 709.5,164.5C 706.5,164.5 703.5,164.5 700.5,164.5C 700.5,142.833 700.5,121.167 700.5,99.5C 694.5,99.5 688.5,99.5 682.5,99.5C 683.378,119.945 679.211,139.278 670,157.5C 668.245,160.044 666.245,162.377 664,164.5C 661.31,162.644 659.144,160.311 657.5,157.5C 665.292,148.244 670.126,137.577 672,125.5C 673.428,101.534 673.928,77.5344 673.5,53.5C 688.816,53.3367 703.816,51.67 718.5,48.5 Z"/></g>
<g><path style="opacity:1" fill="#29749f" d="M 165.5,46.5 C 178.3,44.6126 190.967,45.7792 203.5,50C 206.391,51.2742 209.058,52.7742 211.5,54.5C 209.774,54.1854 208.107,54.0187 206.5,54C 207.328,54.9147 208.328,55.5814 209.5,56C 208.853,59.2485 208.519,62.5819 208.5,66C 208.839,73.5356 209.505,81.0356 210.5,88.5C 209.5,88.5 208.5,88.5 207.5,88.5C 204.362,75.7168 196.695,66.8835 184.5,62C 180.667,60.9662 177.001,59.7995 173.5,58.5C 176.206,58.5751 178.873,58.9084 181.5,59.5C 181.5,58.1667 181.5,56.8333 181.5,55.5C 182.5,55.5 183.5,55.5 184.5,55.5C 184.5,53.8333 184.5,52.1667 184.5,50.5C 180.544,49.9473 180.544,49.1139 184.5,48C 178.222,46.8119 171.888,46.3119 165.5,46.5 Z"/></g>
<g><path style="opacity:1" fill="#3089b9" d="M 211.5,54.5 C 224.689,62.5243 232.689,74.191 235.5,89.5C 225.985,89.8269 216.652,89.4936 207.5,88.5C 208.5,88.5 209.5,88.5 210.5,88.5C 209.505,81.0356 208.839,73.5356 208.5,66C 208.519,62.5819 208.853,59.2485 209.5,56C 208.328,55.5814 207.328,54.9147 206.5,54C 208.107,54.0187 209.774,54.1854 211.5,54.5 Z"/></g>
<g><path style="opacity:1" fill="#25335b" d="M 146.5,50.5 C 148.833,50.5 151.167,50.5 153.5,50.5C 153.261,52.4672 153.594,54.3005 154.5,56C 153.584,56.2784 152.918,56.7784 152.5,57.5C 132.081,60.7495 113.081,67.7495 95.5,78.5C 110.286,65.2709 127.286,55.9376 146.5,50.5 Z"/></g>
<g><path style="opacity:1" fill="#3775ab" d="M 619.5,67.5 C 623.875,71.5493 627.541,76.216 630.5,81.5C 628.641,83.1924 626.641,84.6924 624.5,86C 629.864,86.8295 635.198,86.6628 640.5,85.5C 644.862,79.6379 649.028,73.6379 653,67.5C 655.916,69.0406 658.749,70.7073 661.5,72.5C 658.023,77.1451 654.356,81.6451 650.5,86C 656.491,86.4995 662.491,86.6662 668.5,86.5C 668.5,89.1667 668.5,91.8333 668.5,94.5C 646.833,94.5 625.167,94.5 603.5,94.5C 603.5,91.8333 603.5,89.1667 603.5,86.5C 610.175,86.6663 616.842,86.4996 623.5,86C 620.359,81.3591 617.026,76.8591 613.5,72.5C 615.519,70.8103 617.519,69.1436 619.5,67.5 Z"/></g>
<g><path style="opacity:1" fill="#3374ab" d="M 345.5,72.5 C 383.5,72.5 421.5,72.5 459.5,72.5C 459.5,80.1667 459.5,87.8333 459.5,95.5C 456.5,95.5 453.5,95.5 450.5,95.5C 450.5,90.8333 450.5,86.1667 450.5,81.5C 431.83,81.3334 413.164,81.5001 394.5,82C 396.895,82.6813 399.228,83.5147 401.5,84.5C 400.627,86.4134 399.627,88.2467 398.5,90C 412.496,90.4999 426.496,90.6666 440.5,90.5C 440.111,97.1697 439.611,103.836 439,110.5C 437.718,115.449 434.551,118.283 429.5,119C 423.843,119.499 418.176,119.666 412.5,119.5C 412.308,116.399 411.642,113.399 410.5,110.5C 415.994,110.549 421.661,110.383 427.5,110C 428.333,109.167 429.167,108.333 430,107.5C 430.498,104.518 430.665,101.518 430.5,98.5C 411.167,98.5 391.833,98.5 372.5,98.5C 372.5,106.833 372.5,115.167 372.5,123.5C 400.5,123.5 428.5,123.5 456.5,123.5C 456.786,133.212 456.286,142.879 455,152.5C 454.012,159.156 450.179,162.656 443.5,163C 433.5,163.667 423.5,163.667 413.5,163C 412.347,160.384 411.347,157.718 410.5,155C 420.127,155.557 429.793,155.557 439.5,155C 440.833,154.333 442.167,153.667 443.5,153C 446.807,146.292 448.141,139.125 447.5,131.5C 419.5,131.5 391.5,131.5 363.5,131.5C 363.5,117.833 363.5,104.167 363.5,90.5C 371.86,90.8312 380.193,90.4979 388.5,89.5C 389.695,87.2487 390.695,84.9154 391.5,82.5C 379.185,81.501 366.851,81.1676 354.5,81.5C 354.5,86.1667 354.5,90.8333 354.5,95.5C 351.5,95.5 348.5,95.5 345.5,95.5C 345.5,87.8333 345.5,80.1667 345.5,72.5 Z"/></g>
<g><path style="opacity:1" fill="#3574ab" d="M 523.5,164.5 C 523.833,150.484 523.499,136.484 522.5,122.5C 521.893,122.624 521.56,122.957 521.5,123.5C 517.494,126.934 513.328,130.268 509,133.5C 506.701,131.035 504.534,128.535 502.5,126C 513.068,118.769 522.401,110.103 530.5,100C 521.506,99.5002 512.506,99.3336 503.5,99.5C 503.5,96.5 503.5,93.5 503.5,90.5C 514.52,90.8321 525.52,90.4988 536.5,89.5C 539.016,84.4689 541.516,79.4689 544,74.5C 546.816,75.6623 549.65,76.8289 552.5,78C 550.771,82.1238 548.771,86.1238 546.5,90C 562.497,90.4999 578.497,90.6666 594.5,90.5C 594.5,93.5 594.5,96.5 594.5,99.5C 576.821,99.1671 559.154,99.5005 541.5,100.5C 537.712,105.244 534.045,110.077 530.5,115C 548.164,115.5 565.83,115.667 583.5,115.5C 583.5,131.833 583.5,148.167 583.5,164.5C 580.833,164.5 578.167,164.5 575.5,164.5C 575.5,162.167 575.5,159.833 575.5,157.5C 561.167,157.5 546.833,157.5 532.5,157.5C 532.5,159.833 532.5,162.167 532.5,164.5C 529.5,164.5 526.5,164.5 523.5,164.5 Z"/></g>
<g><path style="opacity:1" fill="#2a335b" d="M 95.5,78.5 C 95.2172,79.2891 94.7172,79.9558 94,80.5C 93.7482,83.6669 93.5815,86.6669 93.5,89.5C 90.103,87.836 86.4363,87.0027 82.5,87C 84.8705,84.3255 86.0372,81.1589 86,77.5C 89.0567,78.4505 92.2234,78.7839 95.5,78.5 Z"/></g>
<g><path style="opacity:1" fill="#2b547b" d="M 62.5,82.5 C 64.7463,83.2096 67.0796,83.7096 69.5,84C 68.1667,86.3333 68.1667,88.6667 69.5,91C 66.8355,90.5203 64.1688,89.687 61.5,88.5C 62.3482,86.5914 62.6816,84.5914 62.5,82.5 Z"/></g>
<g><path style="opacity:1" fill="#3574ab" d="M 472.5,86.5 C 480.167,86.5 487.833,86.5 495.5,86.5C 495.167,106.178 495.5,125.845 496.5,145.5C 501.085,143.081 505.252,140.081 509,136.5C 509.889,140.152 510.222,143.818 510,147.5C 502.806,152.759 495.473,157.759 488,162.5C 485.626,160.622 483.792,158.288 482.5,155.5C 483.919,153.664 485.086,151.664 486,149.5C 486.5,131.503 486.667,113.503 486.5,95.5C 481.833,95.5 477.167,95.5 472.5,95.5C 472.5,92.5 472.5,89.5 472.5,86.5 Z"/></g>
<g><path style="opacity:1" fill="#7f9ec2" d="M 831.5,147.5 C 831.83,128.659 831.497,109.993 830.5,91.5C 830.783,90.7109 831.283,90.0442 832,89.5C 832.829,109.004 832.662,128.338 831.5,147.5 Z"/></g>
<g><path style="opacity:1" fill="#24527c" d="M 29.5,94.5 C 33.1667,94.5 36.8333,94.5 40.5,94.5C 40.2417,112.074 40.2417,129.407 40.5,146.5C 39.8333,149.833 39.1667,153.167 38.5,156.5C 36.1667,156.5 33.8333,156.5 31.5,156.5C 32.071,135.73 31.4043,115.063 29.5,94.5 Z"/></g>
<g><path style="opacity:1" fill="#27739f" d="M 40.5,94.5 C 45.1667,94.5 49.8333,94.5 54.5,94.5C 50.1249,112.007 45.4582,129.341 40.5,146.5C 40.2417,129.407 40.2417,112.074 40.5,94.5 Z"/></g>
<g><path style="opacity:1" fill="#1d2c56" d="M 116.5,120.5 C 116.877,122.258 117.544,123.925 118.5,125.5C 117.861,129.95 117.528,134.45 117.5,139C 117.536,143.589 118.202,147.923 119.5,152C 118.377,153.044 117.044,153.71 115.5,154C 115.833,154.333 116.167,154.667 116.5,155C 113.518,155.498 110.518,155.665 107.5,155.5C 106.078,155.291 104.745,154.791 103.5,154C 94.9884,144.656 86.3217,135.489 77.5,126.5C 74.1249,136.034 71.1249,145.7 68.5,155.5C 62.5368,156.496 56.5368,156.829 50.5,156.5C 54.8219,138.367 59.6553,120.367 65,102.5C 72.281,94.9277 81.1144,92.4277 91.5,95C 94.5616,96.0608 97.0616,97.8941 99,100.5C 104.605,107.385 110.439,114.052 116.5,120.5 Z"/></g>
<g><path style="opacity:1" fill="#1e3760" d="M 29.5,94.5 C 31.4043,115.063 32.071,135.73 31.5,156.5C 24.1667,156.5 16.8333,156.5 9.5,156.5C 9.23219,154.901 9.56552,153.568 10.5,152.5C 10.5,153.5 10.5,154.5 10.5,155.5C 15.5111,155.666 20.5111,155.499 25.5,155C 26.0219,154.439 26.3552,153.772 26.5,153C 25.6936,139.866 25.1936,126.699 25,113.5C 24.5814,112.328 23.9147,111.328 23,110.5C 23,112.5 23,114.5 23,116.5C 22.3292,115.748 21.4959,115.414 20.5,115.5C 21.9609,108.451 23.6275,101.451 25.5,94.5C 26.8333,94.5 28.1667,94.5 29.5,94.5 Z"/></g>
<g><path style="opacity:1" fill="#3474ab" d="M 632.5,97.5 C 635.5,97.5 638.5,97.5 641.5,97.5C 641.5,101.5 641.5,105.5 641.5,109.5C 649.5,109.5 657.5,109.5 665.5,109.5C 665.5,112.167 665.5,114.833 665.5,117.5C 657.5,117.5 649.5,117.5 641.5,117.5C 641.667,129.838 641.5,142.171 641,154.5C 640.463,159.037 637.963,161.537 633.5,162C 627.509,162.499 621.509,162.666 615.5,162.5C 615.5,159.833 615.5,157.167 615.5,154.5C 620.179,154.666 624.845,154.499 629.5,154C 630.701,153.097 631.535,151.931 632,150.5C 632.5,139.505 632.667,128.505 632.5,117.5C 623.833,117.5 615.167,117.5 606.5,117.5C 606.5,114.833 606.5,112.167 606.5,109.5C 615.167,109.5 623.833,109.5 632.5,109.5C 632.5,105.5 632.5,101.5 632.5,97.5 Z"/></g>
<g><path style="opacity:1" fill="#25517a" d="M 149.5,94.5 C 149.667,106.171 149.5,117.838 149,129.5C 148.487,130.527 147.987,131.527 147.5,132.5C 144.87,130.372 142.37,128.039 140,125.5C 138.791,130.364 137.291,135.031 135.5,139.5C 135.451,125.993 135.784,112.327 136.5,98.5C 134.784,98.6287 133.117,98.962 131.5,99.5C 136.601,95.102 142.601,93.4353 149.5,94.5 Z"/></g>
<g><path style="opacity:1" fill="#1d2b55" d="M 237.5,97.5 C 238.75,97.5774 239.583,98.244 240,99.5C 240.588,104.528 240.422,109.528 239.5,114.5C 235.899,123.969 232.899,133.636 230.5,143.5C 229.957,143.56 229.624,143.893 229.5,144.5C 231.743,145.474 234.076,145.808 236.5,145.5C 236.216,148.777 236.549,151.943 237.5,155C 235.19,155.497 232.857,155.663 230.5,155.5C 220.296,154.481 211.796,150.148 205,142.5C 198.866,128.544 202.032,117.044 214.5,108C 221.439,102.863 229.105,99.3633 237.5,97.5 Z"/></g>
<g><path style="opacity:1" fill="#7f9ec1" d="M 756.5,100.5 C 756.56,99.9569 756.893,99.6236 757.5,99.5C 758.5,121.49 758.833,143.49 758.5,165.5C 757.833,143.833 757.167,122.167 756.5,100.5 Z"/></g>
<g><path style="opacity:1" fill="#265e87" d="M 149.5,94.5 C 155.345,94.6726 159.678,97.3393 162.5,102.5C 160.56,117.633 159.894,132.633 160.5,147.5C 155.793,142.795 151.46,137.795 147.5,132.5C 147.987,131.527 148.487,130.527 149,129.5C 149.5,117.838 149.667,106.171 149.5,94.5 Z"/></g>
<g><path style="opacity:1" fill="#328bba" d="M 190.5,152.5 C 189.695,143.911 189.195,135.244 189,126.5C 187.866,123.091 186.2,122.757 184,125.5C 182.97,125.164 182.47,124.497 182.5,123.5C 183.117,123.611 183.617,123.944 184,124.5C 187.141,114.912 189.974,105.245 192.5,95.5C 198.463,94.5041 204.463,94.1707 210.5,94.5C 209.515,105.013 206.015,114.679 200,123.5C 200.033,131.325 199.033,138.991 197,146.5C 195.594,149.409 193.428,151.409 190.5,152.5 Z"/></g>
<g><path style="opacity:1" fill="#2a7aa5" d="M 274.5,96.5 C 278.783,97.9751 282.783,99.9751 286.5,102.5C 284.724,102.794 282.724,102.96 280.5,103C 283,103.833 283.167,105 281,106.5C 280.572,118.282 280.405,129.949 280.5,141.5C 280.957,142.298 281.624,142.631 282.5,142.5C 279.378,145.568 275.711,147.902 271.5,149.5C 271.279,148.265 270.612,147.265 269.5,146.5C 270.689,145.571 272.022,145.238 273.5,145.5C 273.333,130.496 273.5,115.496 274,100.5C 274.75,99.8742 275.584,99.3742 276.5,99C 275.244,98.5831 274.577,97.7498 274.5,96.5 Z"/></g>
<g><path style="opacity:1" fill="#fafbfd" d="M 256.5,144.5 C 251.5,144.5 246.5,144.5 241.5,144.5C 245.163,131.851 248.83,119.184 252.5,106.5C 253.141,104.958 254.141,103.624 255.5,102.5C 260.2,105.327 264.2,108.827 267.5,113C 264.698,124.041 261.031,134.541 256.5,144.5 Z"/></g>
<g><path style="opacity:1" fill="#3d78ad" d="M 388.5,101.5 C 395.09,104.128 401.423,107.295 407.5,111C 405.789,113.589 403.955,116.089 402,118.5C 396.167,114.667 390.333,110.833 384.5,107C 385.965,105.226 387.298,103.392 388.5,101.5 Z"/></g>
<g><path style="opacity:1" fill="#22446c" d="M 135.5,139.5 C 134.548,144.925 133.215,150.259 131.5,155.5C 123.343,156.82 115.343,156.82 107.5,155.5C 110.518,155.665 113.518,155.498 116.5,155C 116.167,154.667 115.833,154.333 115.5,154C 117.044,153.71 118.377,153.044 119.5,152C 118.202,147.923 117.536,143.589 117.5,139C 117.528,134.45 117.861,129.95 118.5,125.5C 117.544,123.925 116.877,122.258 116.5,120.5C 118.129,121.625 119.629,122.959 121,124.5C 123.152,117.561 125.152,110.561 127,103.5C 128.371,101.959 129.871,100.625 131.5,99.5C 133.117,98.962 134.784,98.6287 136.5,98.5C 135.784,112.327 135.451,125.993 135.5,139.5 Z"/></g>
<g><path style="opacity:1" fill="#308aba" d="M 286.5,102.5 C 297.629,111.058 299.463,121.391 292,133.5C 289.621,137.38 286.454,140.38 282.5,142.5C 281.624,142.631 280.957,142.298 280.5,141.5C 280.405,129.949 280.572,118.282 281,106.5C 283.167,105 283,103.833 280.5,103C 282.724,102.96 284.724,102.794 286.5,102.5 Z"/></g>
<g><path style="opacity:1" fill="#f6f8fa" d="M 230.5,143.5 C 232.899,133.636 235.899,123.969 239.5,114.5C 242.885,112.053 246.385,109.72 250,107.5C 250.167,107.833 250.333,108.167 250.5,108.5C 246.022,120.267 242.355,132.267 239.5,144.5C 236.287,144.81 233.287,144.477 230.5,143.5 Z"/></g>
<g><path style="opacity:1" fill="#236d98" d="M 162.5,102.5 C 167.54,106.539 171.873,111.206 175.5,116.5C 176.495,129.493 176.829,142.326 176.5,155C 174.527,155.495 172.527,155.662 170.5,155.5C 166.296,153.967 162.963,151.3 160.5,147.5C 159.894,132.633 160.56,117.633 162.5,102.5 Z"/></g>
<g><path style="opacity:1" fill="#27648f" d="M 256.5,94.5 C 262.616,94.2678 268.616,94.9345 274.5,96.5C 274.577,97.7498 275.244,98.5831 276.5,99C 275.584,99.3742 274.75,99.8742 274,100.5C 273.5,115.496 273.333,130.496 273.5,145.5C 272.022,145.238 270.689,145.571 269.5,146.5C 270.612,147.265 271.279,148.265 271.5,149.5C 265.429,152.269 259.096,154.269 252.5,155.5C 251.105,154.352 251.272,153.352 253,152.5C 253.497,150.19 253.663,147.857 253.5,145.5C 254.791,145.737 255.791,145.404 256.5,144.5C 261.031,134.541 264.698,124.041 267.5,113C 264.2,108.827 260.2,105.327 255.5,102.5C 254.141,103.624 253.141,104.958 252.5,106.5C 251.887,103.031 253.221,101.031 256.5,100.5C 256.5,98.5 256.5,96.5 256.5,94.5 Z"/></g>
<g><path style="opacity:1" fill="#1e2b55" d="M 10.5,152.5 C 13.4392,140.022 16.7725,127.689 20.5,115.5C 21.4959,115.414 22.3292,115.748 23,116.5C 23,114.5 23,112.5 23,110.5C 23.9147,111.328 24.5814,112.328 25,113.5C 25.1936,126.699 25.6936,139.866 26.5,153C 26.3552,153.772 26.0219,154.439 25.5,155C 20.5111,155.499 15.5111,155.666 10.5,155.5C 10.5,154.5 10.5,153.5 10.5,152.5 Z"/></g>
<g><path style="opacity:1" fill="#7f9ec1" d="M 521.5,123.5 C 521.56,122.957 521.893,122.624 522.5,122.5C 523.499,136.484 523.833,150.484 523.5,164.5C 522.833,150.833 522.167,137.167 521.5,123.5 Z"/></g>
<g><path style="opacity:1" fill="#fdfdfe" d="M 532.5,123.5 C 546.833,123.5 561.167,123.5 575.5,123.5C 575.5,132.167 575.5,140.833 575.5,149.5C 561.167,149.5 546.833,149.5 532.5,149.5C 532.5,140.833 532.5,132.167 532.5,123.5 Z"/></g>
<g><path style="opacity:1" fill="#3976ac" d="M 615.5,123.5 C 618.757,124.462 621.757,125.962 624.5,128C 620.395,136.376 615.895,144.543 611,152.5C 608.242,151.205 605.742,149.539 603.5,147.5C 608.571,140.025 612.571,132.025 615.5,123.5 Z"/></g>
<g><path style="opacity:1" fill="#3b77ad" d="M 651.5,123.5 C 656.355,128.868 660.689,134.701 664.5,141C 662,142.833 659.5,144.667 657,146.5C 652.969,140.634 649.136,134.634 645.5,128.5C 647.519,126.81 649.519,125.144 651.5,123.5 Z"/></g>
<g><path style="opacity:1" fill="#297daa" d="M 175.5,116.5 C 178.167,118.5 180.5,120.833 182.5,123.5C 182.47,124.497 182.97,125.164 184,125.5C 186.2,122.757 187.866,123.091 189,126.5C 189.195,135.244 189.695,143.911 190.5,152.5C 184.198,156.252 177.532,157.252 170.5,155.5C 172.527,155.662 174.527,155.495 176.5,155C 176.829,142.326 176.495,129.493 175.5,116.5 Z"/></g>
<g><path style="opacity:1" fill="#3474ab" d="M 345.5,139.5 C 375.833,139.5 406.167,139.5 436.5,139.5C 436.5,142.167 436.5,144.833 436.5,147.5C 406.167,147.5 375.833,147.5 345.5,147.5C 345.5,144.833 345.5,142.167 345.5,139.5 Z"/></g>
<g><path style="opacity:1" fill="#25436b" d="M 256.5,94.5 C 256.5,96.5 256.5,98.5 256.5,100.5C 253.221,101.031 251.887,103.031 252.5,106.5C 248.83,119.184 245.163,131.851 241.5,144.5C 246.5,144.5 251.5,144.5 256.5,144.5C 255.791,145.404 254.791,145.737 253.5,145.5C 253.663,147.857 253.497,150.19 253,152.5C 251.272,153.352 251.105,154.352 252.5,155.5C 245.009,156.603 237.676,156.603 230.5,155.5C 232.857,155.663 235.19,155.497 237.5,155C 236.549,151.943 236.216,148.777 236.5,145.5C 234.076,145.808 231.743,145.474 229.5,144.5C 229.624,143.893 229.957,143.56 230.5,143.5C 233.287,144.477 236.287,144.81 239.5,144.5C 242.355,132.267 246.022,120.267 250.5,108.5C 250.333,108.167 250.167,107.833 250,107.5C 246.385,109.72 242.885,112.053 239.5,114.5C 240.422,109.528 240.588,104.528 240,99.5C 239.583,98.244 238.75,97.5774 237.5,97.5C 243.481,95.1276 249.815,94.1276 256.5,94.5 Z"/></g>
<g><path style="opacity:1" fill="#a3cee6" d="M 172.5,164.5 C 183.007,163.177 193.674,163.177 204.5,164.5C 204.376,165.107 204.043,165.44 203.5,165.5C 193.347,164.506 183.014,164.172 172.5,164.5 Z"/></g>
<g><path style="opacity:1" fill="#2f85b4" d="M 172.5,164.5 C 183.014,164.172 193.347,164.506 203.5,165.5C 194.671,176.336 184.337,185.336 172.5,192.5C 172.586,191.504 172.252,190.671 171.5,190C 173.886,189.716 174.552,188.716 173.5,187C 174.308,186.692 174.975,186.192 175.5,185.5C 174.714,180.219 174.214,174.885 174,169.5C 172.644,168.62 171.144,168.286 169.5,168.5C 170.5,167.167 171.5,165.833 172.5,164.5 Z"/></g>
<g><path style="opacity:1" fill="#202d57" d="M 103.5,202.5 C 104.833,202.5 106.167,202.5 107.5,202.5C 107.176,206.555 107.509,210.555 108.5,214.5C 109.308,214.808 109.975,215.308 110.5,216C 108.256,216.05 106.589,216.883 105.5,218.5C 89.692,220.442 74.692,217.942 60.5,211C 45.2066,200.155 39.0399,185.321 42,166.5C 44.7381,153.214 46.0715,153.547 46,167.5C 51.1018,186.931 63.6018,198.431 83.5,202C 90.1583,202.5 96.825,202.666 103.5,202.5 Z"/></g>
<g><path style="opacity:1" fill="#170a1f" d="M 782.5,181.5 C 783.833,181.5 785.167,181.5 786.5,181.5C 786.5,193.5 786.5,205.5 786.5,217.5C 785.167,217.5 783.833,217.5 782.5,217.5C 782.5,205.5 782.5,193.5 782.5,181.5 Z"/></g>
<g><path style="opacity:1" fill="#00000c" d="M 355.5,183.5 C 356.5,183.5 357.5,183.5 358.5,183.5C 358.5,194.833 358.5,206.167 358.5,217.5C 357.5,217.5 356.5,217.5 355.5,217.5C 355.5,206.167 355.5,194.833 355.5,183.5 Z"/></g>
<g><path style="opacity:1" fill="#231617" d="M 367.5,183.5 C 369.792,183.244 371.959,183.577 374,184.5C 379.333,193.167 384.667,201.833 390,210.5C 390.5,201.506 390.666,192.506 390.5,183.5C 391.833,183.5 393.167,183.5 394.5,183.5C 394.5,194.833 394.5,206.167 394.5,217.5C 392.712,217.785 391.045,217.452 389.5,216.5C 383.917,206.998 378.084,197.665 372,188.5C 371.5,198.161 371.334,207.828 371.5,217.5C 370.167,217.5 368.833,217.5 367.5,217.5C 367.5,206.167 367.5,194.833 367.5,183.5 Z"/></g>
<g><path style="opacity:1" fill="#231617" d="M 402.5,183.5 C 404.792,183.244 406.959,183.577 409,184.5C 414.333,193.167 419.667,201.833 425,210.5C 425.5,201.506 425.666,192.506 425.5,183.5C 426.833,183.5 428.167,183.5 429.5,183.5C 429.5,194.833 429.5,206.167 429.5,217.5C 427.712,217.785 426.045,217.452 424.5,216.5C 418.917,206.998 413.084,197.665 407,188.5C 406.5,198.161 406.334,207.828 406.5,217.5C 405.167,217.5 403.833,217.5 402.5,217.5C 402.5,206.167 402.5,194.833 402.5,183.5 Z"/></g>
<g><path style="opacity:1" fill="#160e15" d="M 437.5,205.5 C 437.372,201.119 437.705,196.785 438.5,192.5C 443.453,184.569 450.453,182.069 459.5,185C 465.312,188.29 467.979,193.29 467.5,200C 468.349,209.16 464.349,214.826 455.5,217C 446.061,218.452 440.061,214.618 437.5,205.5 Z"/></g>
<g><path style="opacity:1" fill="#231617" d="M 500.5,183.5 C 502.792,183.244 504.959,183.577 507,184.5C 512.333,193.167 517.667,201.833 523,210.5C 523.5,201.506 523.666,192.506 523.5,183.5C 524.833,183.5 526.167,183.5 527.5,183.5C 527.5,194.833 527.5,206.167 527.5,217.5C 525.712,217.785 524.045,217.452 522.5,216.5C 516.917,206.998 511.084,197.665 505,188.5C 504.5,198.161 504.334,207.828 504.5,217.5C 503.167,217.5 501.833,217.5 500.5,217.5C 500.5,206.167 500.5,194.833 500.5,183.5 Z"/></g>
<g><path style="opacity:1" fill="#0d0506" d="M 650.5,189.5 C 649.833,189.5 649.167,189.5 648.5,189.5C 648.373,184.627 650.706,182.627 655.5,183.5C 655.5,194.833 655.5,206.167 655.5,217.5C 654.5,217.5 653.5,217.5 652.5,217.5C 652.666,207.161 652.5,196.828 652,186.5C 651.768,187.737 651.268,188.737 650.5,189.5 Z"/></g>
<g><path style="opacity:1" fill="#0c0117" d="M 747.5,182.5 C 750.956,183.536 751.29,185.203 748.5,187.5C 746.296,186.218 745.962,184.551 747.5,182.5 Z"/></g>
<g><path style="opacity:1" fill="#256892" d="M 169.5,168.5 C 171.144,168.286 172.644,168.62 174,169.5C 174.214,174.885 174.714,180.219 175.5,185.5C 174.975,186.192 174.308,186.692 173.5,187C 174.552,188.716 173.886,189.716 171.5,190C 172.252,190.671 172.586,191.504 172.5,192.5C 163.284,198.609 153.617,203.942 143.5,208.5C 144.28,205.899 145.946,203.899 148.5,202.5C 147.726,198.221 147.226,193.887 147,189.5C 146.617,188.944 146.117,188.611 145.5,188.5C 154.376,182.964 162.376,176.297 169.5,168.5 Z"/></g>
<g><path style="opacity:1" fill="#f9f9f7" d="M 448.5,187.5 C 462.23,187.213 467.064,193.88 463,207.5C 459.268,213.046 454.101,214.879 447.5,213C 445.083,211.337 443.25,209.171 442,206.5C 439.564,198.313 441.731,191.98 448.5,187.5 Z"/></g>
<g><path style="opacity:1" fill="#171022" d="M 644.5,198.5 C 645.931,197.22 646.598,195.553 646.5,193.5C 647.167,192.167 647.833,190.833 648.5,189.5C 649.167,189.5 649.833,189.5 650.5,189.5C 647.624,199.124 643.958,208.457 639.5,217.5C 634.345,207.562 629.845,197.229 626,186.5C 625.5,196.828 625.334,207.161 625.5,217.5C 624.5,217.5 623.5,217.5 622.5,217.5C 622.5,206.167 622.5,194.833 622.5,183.5C 624.467,183.261 626.301,183.594 628,184.5C 631.667,193.5 635.333,202.5 639,211.5C 640.688,207.046 642.522,202.712 644.5,198.5 Z"/></g>
<g><path style="opacity:1" fill="#220f15" d="M 689.5,187.5 C 690.833,187.5 692.167,187.5 693.5,187.5C 693.5,189.5 693.5,191.5 693.5,193.5C 695.5,193.5 697.5,193.5 699.5,193.5C 699.5,194.5 699.5,195.5 699.5,196.5C 697.5,196.5 695.5,196.5 693.5,196.5C 693.334,201.844 693.501,207.177 694,212.5C 695.53,213.92 697.363,214.92 699.5,215.5C 696.214,218.267 693.214,217.934 690.5,214.5C 689.504,208.537 689.171,202.537 689.5,196.5C 688.167,196.5 686.833,196.5 685.5,196.5C 685.5,195.5 685.5,194.5 685.5,193.5C 686.833,193.5 688.167,193.5 689.5,193.5C 689.5,191.5 689.5,189.5 689.5,187.5 Z"/></g>
<g><path style="opacity:1" fill="#27557d" d="M 145.5,188.5 C 146.117,188.611 146.617,188.944 147,189.5C 147.226,193.887 147.726,198.221 148.5,202.5C 145.946,203.899 144.28,205.899 143.5,208.5C 138.874,210.043 134.207,211.376 129.5,212.5C 127.069,211.259 127.069,210.092 129.5,209C 129.007,205.158 128.674,201.324 128.5,197.5C 127.5,197.5 126.5,197.5 125.5,197.5C 132.129,194.521 138.795,191.521 145.5,188.5 Z"/></g>
<g><path style="opacity:1" fill="#120b14" d="M 535.5,209.5 C 535.342,206.098 535.676,202.764 536.5,199.5C 541.575,192.52 547.408,191.854 554,197.5C 555.289,200.351 555.789,203.351 555.5,206.5C 549.833,206.5 544.167,206.5 538.5,206.5C 539.5,213.652 543.5,216.152 550.5,214C 551.416,213.626 552.25,213.126 553,212.5C 553.667,213.167 553.667,213.833 553,214.5C 545.151,219.559 539.317,217.893 535.5,209.5 Z"/></g>
<g><path style="opacity:1" fill="#180e1d" d="M 558.5,194.5 C 559.708,193.218 561.042,193.218 562.5,194.5C 563.423,197.447 564.089,200.447 564.5,203.5C 564.402,205.553 565.069,207.22 566.5,208.5C 566.892,210.179 567.392,211.846 568,213.5C 570.025,206.932 571.525,200.266 572.5,193.5C 574.167,193.5 575.833,193.5 577.5,193.5C 578.681,200.227 580.181,206.894 582,213.5C 582.9,209.829 583.734,206.163 584.5,202.5C 585.612,200.401 586.279,198.067 586.5,195.5C 586.62,194.414 587.287,193.747 588.5,193.5C 589.167,193.833 589.833,194.167 590.5,194.5C 587.644,201.277 585.477,208.277 584,215.5C 583.29,216.973 582.124,217.64 580.5,217.5C 580.737,216.209 580.404,215.209 579.5,214.5C 579.59,211.848 578.924,209.515 577.5,207.5C 576.426,196.364 574.759,196.031 572.5,206.5C 570.723,209.505 569.723,212.838 569.5,216.5C 568.432,217.434 567.099,217.768 565.5,217.5C 565.405,215.214 564.738,213.214 563.5,211.5C 563.277,207.838 562.277,204.505 560.5,201.5C 560.59,198.848 559.924,196.515 558.5,194.5 Z"/></g>
<g><path style="opacity:1" fill="#1d0e19" d="M 670.5,193.5 C 674.676,193.168 678.176,194.502 681,197.5C 681.5,204.158 681.666,210.825 681.5,217.5C 680.167,217.5 678.833,217.5 677.5,217.5C 677.649,216.448 677.483,215.448 677,214.5C 672.01,218.769 667.344,218.436 663,213.5C 661.877,210.044 662.71,207.21 665.5,205C 669.44,203.844 673.44,203.01 677.5,202.5C 677.133,196.844 674.133,195.011 668.5,197C 665.744,199.224 665.077,198.724 666.5,195.5C 668.026,195.006 669.359,194.339 670.5,193.5 Z"/></g>
<g><path style="opacity:1" fill="#120b14" d="M 703.5,209.5 C 703.342,206.098 703.676,202.764 704.5,199.5C 709.575,192.52 715.408,191.854 722,197.5C 723.289,200.351 723.789,203.351 723.5,206.5C 717.833,206.5 712.167,206.5 706.5,206.5C 707.5,213.652 711.5,216.152 718.5,214C 719.416,213.626 720.25,213.126 721,212.5C 721.667,213.167 721.667,213.833 721,214.5C 713.151,219.559 707.317,217.893 703.5,209.5 Z"/></g>
<g><path style="opacity:1" fill="#24101d" d="M 729.5,193.5 C 730.833,193.5 732.167,193.5 733.5,193.5C 733.351,194.552 733.517,195.552 734,196.5C 735.995,194.253 738.495,193.253 741.5,193.5C 741.5,194.5 741.5,195.5 741.5,196.5C 738.348,195.959 735.848,196.959 734,199.5C 733.501,205.491 733.334,211.491 733.5,217.5C 732.167,217.5 730.833,217.5 729.5,217.5C 729.5,209.5 729.5,201.5 729.5,193.5 Z"/></g>
<g><path style="opacity:1" fill="#170a1f" d="M 746.5,193.5 C 747.833,193.5 749.167,193.5 750.5,193.5C 750.5,201.5 750.5,209.5 750.5,217.5C 749.167,217.5 747.833,217.5 746.5,217.5C 746.5,209.5 746.5,201.5 746.5,193.5 Z"/></g>
<g><path style="opacity:1" fill="#1d0e19" d="M 764.5,193.5 C 768.676,193.168 772.176,194.502 775,197.5C 775.5,204.158 775.666,210.825 775.5,217.5C 774.167,217.5 772.833,217.5 771.5,217.5C 771.649,216.448 771.483,215.448 771,214.5C 766.01,218.769 761.344,218.436 757,213.5C 755.877,210.044 756.71,207.21 759.5,205C 763.44,203.844 767.44,203.01 771.5,202.5C 771.133,196.844 768.133,195.011 762.5,197C 759.744,199.224 759.077,198.724 760.5,195.5C 762.026,195.006 763.359,194.339 764.5,193.5 Z"/></g>
<g><path style="opacity:1" fill="#160d15" d="M 799.5,193.5 C 802.272,193.22 804.772,193.887 807,195.5C 807.688,196.332 807.521,196.998 806.5,197.5C 803.897,196.438 801.23,196.272 798.5,197C 797.167,199 797.167,201 798.5,203C 801.618,204.059 804.618,205.392 807.5,207C 809.365,213.661 806.699,217.161 799.5,217.5C 796.927,217.547 794.927,216.547 793.5,214.5C 796.919,214.671 800.419,214.337 804,213.5C 804.667,212.167 804.667,210.833 804,209.5C 801.31,207.818 798.477,206.318 795.5,205C 792.043,199.424 793.376,195.59 799.5,193.5 Z"/></g>
<g><path style="opacity:1" fill="#d2975e" d="M 438.5,192.5 C 437.705,196.785 437.372,201.119 437.5,205.5C 436.355,201.689 436.188,197.689 437,193.5C 437.383,192.944 437.883,192.611 438.5,192.5 Z"/></g>
<g><path style="opacity:1" fill="#f5f5f2" d="M 542.5,196.5 C 548.434,195.283 551.434,197.616 551.5,203.5C 547.5,203.5 543.5,203.5 539.5,203.5C 539.15,200.547 540.15,198.213 542.5,196.5 Z"/></g>
<g><path style="opacity:1" fill="#c68a50" d="M 646.5,193.5 C 646.598,195.553 645.931,197.22 644.5,198.5C 644.402,196.447 645.069,194.78 646.5,193.5 Z"/></g>
<g><path style="opacity:1" fill="#f5f5f2" d="M 710.5,196.5 C 716.434,195.283 719.434,197.616 719.5,203.5C 715.5,203.5 711.5,203.5 707.5,203.5C 707.15,200.547 708.15,198.213 710.5,196.5 Z"/></g>
<g><path style="opacity:1" fill="#d49c64" d="M 558.5,194.5 C 559.924,196.515 560.59,198.848 560.5,201.5C 559.076,199.485 558.41,197.152 558.5,194.5 Z"/></g>
<g><path style="opacity:1" fill="#ce9056" d="M 586.5,195.5 C 586.279,198.067 585.612,200.401 584.5,202.5C 584.171,199.772 584.837,197.438 586.5,195.5 Z"/></g>
<g><path style="opacity:1" fill="#cb8b4e" d="M 536.5,199.5 C 535.676,202.764 535.342,206.098 535.5,209.5C 534.362,206.696 534.195,203.696 535,200.5C 535.383,199.944 535.883,199.611 536.5,199.5 Z"/></g>
<g><path style="opacity:1" fill="#cb8b4e" d="M 704.5,199.5 C 703.676,202.764 703.342,206.098 703.5,209.5C 702.362,206.696 702.195,203.696 703,200.5C 703.383,199.944 703.883,199.611 704.5,199.5 Z"/></g>
<g><path style="opacity:1" fill="#24446c" d="M 125.5,197.5 C 126.5,197.5 127.5,197.5 128.5,197.5C 128.674,201.324 129.007,205.158 129.5,209C 127.069,210.092 127.069,211.259 129.5,212.5C 121.836,215.416 113.836,217.416 105.5,218.5C 106.589,216.883 108.256,216.05 110.5,216C 109.975,215.308 109.308,214.808 108.5,214.5C 107.509,210.555 107.176,206.555 107.5,202.5C 106.167,202.5 104.833,202.5 103.5,202.5C 110.805,201.16 118.138,199.494 125.5,197.5 Z"/></g>
<g><path style="opacity:1" fill="#d59d65" d="M 560.5,201.5 C 562.277,204.505 563.277,207.838 563.5,211.5C 561.723,208.495 560.723,205.162 560.5,201.5 Z"/></g>
<g><path style="opacity:1" fill="#4c84c4" d="M 564.5,203.5 C 565.931,204.78 566.598,206.447 566.5,208.5C 565.069,207.22 564.402,205.553 564.5,203.5 Z"/></g>
<g><path style="opacity:1" fill="#efefec" d="M 672.5,205.5 C 674.167,205.5 675.833,205.5 677.5,205.5C 678.175,212.327 675.175,215.16 668.5,214C 665.833,211.667 665.833,209.333 668.5,207C 670.058,206.79 671.391,206.29 672.5,205.5 Z"/></g>
<g><path style="opacity:1" fill="#efefec" d="M 766.5,205.5 C 768.167,205.5 769.833,205.5 771.5,205.5C 772.175,212.327 769.175,215.16 762.5,214C 759.833,211.667 759.833,209.333 762.5,207C 764.058,206.79 765.391,206.29 766.5,205.5 Z"/></g>
<g><path style="opacity:1" fill="#5382c1" d="M 572.5,206.5 C 572.277,210.162 571.277,213.495 569.5,216.5C 569.723,212.838 570.723,209.505 572.5,206.5 Z"/></g>
<g><path style="opacity:1" fill="#d9a268" d="M 577.5,207.5 C 578.924,209.515 579.59,211.848 579.5,214.5C 578.076,212.485 577.41,210.152 577.5,207.5 Z"/></g>
</svg>
